<?xml version="1.0" encoding="utf-8"?>
<!-- Generator: Adobe Illustrator 24.0.1, SVG Export Plug-In . SVG Version: 6.00 Build 0)  -->
<svg version="1.1" id="Icon_bnet" xmlns="http://www.w3.org/2000/svg" xmlns:xlink="http://www.w3.org/1999/xlink" x="0px" y="0px"
	 viewBox="0 0 64 64" style="enable-background:new 0 0 64 64;" xml:space="preserve">
<path d="M55.4,36.4c-0.8-2.5-3.1-4.6-6.2-6.5c1.3,0,2.9-0.2,3.7-0.9c0.1-0.1,0.2-0.2,0.2-0.3c1.2-1.6-0.7-4.8-5.3-7.1
	c1.8-3.4,3-6.4,3.6-8.5c0.1-0.5,0.2-0.9,0.2-1.2c0-0.6-0.1-0.8-0.1-0.8c-0.2,1.1-1.6,4.9-4.8,10c0,0,0,0,0.1,0c0,0,0,0,0,0
	c-2.5-1.2-5.8-2.1-9.6-2.4c0,0,0,0,0,0c0.1,0,0.1,0,0.1,0c-0.9-1.7-3.5-6.4-6.1-8.9c-1.7-1.7-3.1-2.3-4.1-2.3
	c-1.4-0.2-2.3,0.6-2.7,1.1c-1.7,1.9-2.4,4.9-2.5,8.4c-0.7-1.1-1.5-2.3-2.6-2.6c-0.1,0-0.2-0.1-0.4-0.1c-2-0.3-3.8,3-3.6,8.1
	c-3.8,0.1-7.1,0.6-9.3,1.1c-0.5,0.1-0.9,0.3-1.1,0.4c-0.5,0.3-0.7,0.5-0.7,0.5c1-0.4,5-1.1,11.2-0.8c0,0,0-0.1,0-0.1c0,0,0,0,0,0
	c0.3,2.8,1.1,6,2.6,9.4c0,0,0,0,0,0c0,0,0-0.1,0-0.1c-1,1.5-3.8,6.2-4.7,9.8c-0.6,2.3-0.4,3.8,0,4.7c0.6,1.3,1.6,1.7,2.3,1.8
	c2.5,0.6,5.5-0.4,8.7-2.1c-0.7,1.1-1.3,2.6-1,3.6c0,0,0,0.1,0,0.1c0,0,0,0,0,0c0.5,2.2,4.4,2.1,8.9-0.8c2,3.2,4,5.8,5.6,7.4
	c0.4,0.4,0.7,0.6,0.9,0.7c0.5,0.3,0.8,0.3,0.8,0.3c-0.8-0.7-3.4-3.8-6.3-9.2c0,0-0.1,0-0.1,0.1c0,0,0,0,0,0c2.3-1.6,4.7-3.9,6.9-7.1
	c0,0,0,0,0,0c0,0.1-0.1,0.1-0.1,0.1l0,0c1.9,0.1,7.3,0.2,10.7-0.8c2.3-0.6,3.5-1.5,4.1-2.4C55.8,38.2,55.6,37.1,55.4,36.4z
	 M17.2,39.7c0.4-1.4,1.4-3.6,1.9-4.7c0.1,0.2,0.2,0.4,0.3,0.5c1.9,3.5,4.1,5.5,6.2,6.7c-2.9,1.6-5.7,2.2-7.6,1.3
	c-0.5-0.2-0.8-0.6-1-1.1C16.9,41.7,17,40.6,17.2,39.7z M25.5,48.2c-0.2-0.6,0.2-1.3,0.6-2c1-0.6,2-1.3,2.9-2
	c0.7,1.3,1.4,2.6,2.1,3.8c-2.6,1.4-4.7,1.7-5.5,0.4C25.5,48.3,25.5,48.3,25.5,48.2z M49.8,28.4c0,0.1-0.1,0.1-0.1,0.2
	c-0.4,0.4-1.2,0.5-2.1,0.5c-1-0.5-2.1-1-3.2-1.5c0.8-1.2,1.6-2.5,2.3-3.7C49.1,25.4,50.4,27.1,49.8,28.4z M18,23.3
	C18,23.3,18,23.3,18,23.3C18,23.3,18,23.3,18,23.3z M32.3,47.2c-0.5-1.1-1.1-2.4-1.6-3.6c2.7,0.1,4.9-0.8,5.6-1.4
	c0.6-0.5,0.7-0.6,0.7-0.6c0,0-0.1,0.1-1.4,0.6c-1.5,0.6-3.2,0.8-4.9,0.6c3.2-2.7,6.2-5.7,8.5-8.4c0.9-1,1.7-2.1,2.5-3.1
	c0,0-0.1,0-0.1-0.1c0,0,0,0,0,0c-0.2-0.1-0.5-0.4-0.8-0.6c-0.4-0.2-0.6-0.4-0.8-0.5c-0.2,0.3-0.4,0.5-0.7,0.8
	c-3.2,3.7-8.1,8.2-12.6,10.8c-2.1-1.1-4.1-3.2-5.6-6.2c-2-4-3-8.2-3.2-11.6c1.2,0.1,2.5,0.2,3.9,0.4c-1.4,2.3-1.7,4.6-1.5,5.5
	c0.1,0.8,0.2,0.9,0.2,0.9c0,0,0-0.1,0.2-1.5c0.2-1.6,0.9-3.1,1.9-4.5c0.7,4.1,1.8,8.3,3,11.6c0.4,1.3,0.9,2.5,1.4,3.7
	c0,0,0.1,0,0.1,0c0,0,0,0,0,0.1c0.2-0.1,0.6-0.2,0.9-0.4c0.4-0.2,0.7-0.3,0.9-0.4c-0.1-0.3-0.2-0.6-0.3-1c-1.6-4.7-3-11.1-3.1-16.4
	c2-1.2,4.8-2,8.2-1.8c4.5,0.3,8.6,1.5,11.6,3.1c-0.7,1-1.5,2.1-2.3,3.2c-1.3-2.3-3.1-3.7-4-4.1C38.3,22,38.1,22,38.1,22
	s0.1,0,1.2,0.9c1.2,1,2.2,2.4,2.9,3.8c-3.9-1.5-8.1-2.5-11.5-3.2c-1.3-0.2-2.6-0.4-3.9-0.6c0,0,0,0.1,0,0.1c0,0,0,0-0.1,0
	c0,0.2-0.1,0.6-0.1,1c0,0.4,0,0.8,0,1c0.3,0.1,0.7,0.1,1,0.2c4.9,1,11.2,2.9,15.7,5.5c0.1,2.4-0.7,5.2-2.5,8
	C38.3,42.4,35.1,45.4,32.3,47.2z M22,18.8c0,1.2,0.2,2.5,0.3,3.7c-1.5-0.1-2.9-0.1-4.2-0.1c0.1-2.9,0.9-4.9,2.4-5c0.1,0,0.1,0,0.2,0
	C21.2,17.6,21.6,18.2,22,18.8z M41.8,40.2c2.1-3.4,2.8-6.3,2.7-8.8c2.8,1.8,4.7,3.8,4.9,5.9c0,0.4,0,0.7-0.2,1
	c-0.5,0.8-1.7,1.3-2.8,1.7c-1.4,0.4-3.7,0.6-4.9,0.7C41.6,40.4,41.7,40.3,41.8,40.2z M34.5,18.5c-4-0.1-6.9,0.8-9,2.1
	c0.1-3.3,0.9-6,2.6-7.2c0.3-0.2,0.7-0.3,1-0.3c1,0,2,0.8,2.8,1.6c1,1,2.4,2.9,3,3.9C34.9,18.5,34.7,18.5,34.5,18.5z"/>
</svg>
