<?xml version="1.0" encoding="UTF-8" standalone="no"?>
<!-- Generator: Adobe Illustrator 23.0.3, SVG Export Plug-In . SVG Version: 6.00 Build 0)  -->

<svg
   xmlns:dc="http://purl.org/dc/elements/1.1/"
   xmlns:cc="http://creativecommons.org/ns#"
   xmlns:rdf="http://www.w3.org/1999/02/22-rdf-syntax-ns#"
   xmlns:svg="http://www.w3.org/2000/svg"
   xmlns="http://www.w3.org/2000/svg"
   xmlns:sodipodi="http://sodipodi.sourceforge.net/DTD/sodipodi-0.dtd"
   xmlns:inkscape="http://www.inkscape.org/namespaces/inkscape"
   version="1.1"
   id="Layer_1"
   x="0px"
   y="0px"
   viewBox="0 0 400 165"
   style="enable-background:new 0 0 400 165;"
   xml:space="preserve"
   sodipodi:docname="Underlords_WordMark_Vertical.svg"
   inkscape:version="0.92.3 (2405546, 2018-03-11)"><metadata
   id="metadata11"><rdf:RDF><cc:Work
       rdf:about=""><dc:format>image/svg+xml</dc:format><dc:type
         rdf:resource="http://purl.org/dc/dcmitype/StillImage" /><dc:title></dc:title></cc:Work></rdf:RDF></metadata><defs
   id="defs9" /><sodipodi:namedview
   pagecolor="#ffffff"
   bordercolor="#666666"
   borderopacity="1"
   objecttolerance="10"
   gridtolerance="10"
   guidetolerance="10"
   inkscape:pageopacity="0"
   inkscape:pageshadow="2"
   inkscape:window-width="1920"
   inkscape:window-height="1017"
   id="namedview7"
   showgrid="false"
   inkscape:zoom="1.785"
   inkscape:cx="112.60209"
   inkscape:cy="56.627767"
   inkscape:window-x="-8"
   inkscape:window-y="-8"
   inkscape:window-maximized="1"
   inkscape:current-layer="Layer_1" />
<style
   type="text/css"
   id="style2">
	.st0{fill:#FFFFFF;}
</style>
<path
   class="st0"
   d="M391.8,106.9c-2.3,1.8-2.6,2-3.9,3.8c-1.6,2.2-2.1,3.1-1.5,5.5c0.1,0.6,0.6,1.6,0.9,2.1  c1.2,1.7,1.9,2.3,2.8,3.6c1.8,2.5,2.6,3.1,3.5,6.1c0.4,1.4,0.8,5.6,0.9,7.1v0.1c-0.3,2.4-0.3,2.9-0.5,4.5c-0.2,1.5-1,3.8-1.8,5.2  c-4.1,7-4.2,5.2-8.1,8.6c-1.1,1-3.8,2.3-5,3.1c-2,1.2-2,0.8-4.2,1.6c-0.4,0.1-1.7,0.4-2.3,0.5c-0.5,0-2.3,0.1-3.1-0.5  c0.7-0.6,1.5-0.2,2.2-0.8c0-0.1,1.2-1,1.1-1.1c-0.6,0.4-4.5,1.6-5.1,1.9c-0.3,0.2-0.6,0.3-0.8-0.1c-0.6-1-1.3-0.2-1.9-1.2  c-0.2-0.3-1.5,0.1-1.2-0.1c0.5-0.2,2.1-0.5,4.1-2.2c0-0.1-1.6,0.9-1.6,0.8c-0.9,0.5-3.8,0.7-4.8,1c-0.9-0.6-1.4-1.7-1.9-2.4  c-0.7-1.1,4.4-1.6,3.8-2.7c-0.4-0.6,2.7-2,1.9-1.8c-0.2,0-4.1,1.6-4.2,1.4c0.6-2.2,1.1-2.1,1.2-2.2c3.9-1.6,2.5-1.2,6.6-2.9  c0.8-0.4,1.9-0.9,2.8-1.6c2.5-1.8,3.4-2.1,4.7-4.5c0.1-0.2,0.7-1.2,0.7-1.4c0.2-0.8,0.4-1.3,0.4-1.6c0.5-5.7-1.7-6.3-3.4-9.2  c-1.4-2.4-2.8-4.8-3.6-7.4c-0.6-3.2-1.7-4.8-0.5-9.4l0,0c0.5-1.4,0.9-3,1.7-4.2c1.1-1.7,2.1-3.5,3.5-5.1c1.6-1.8,4-3,6.1-4.3  c1.4-0.8,2.7-1,4.1-1.7c0.1,0,0.2-0.1,0.3-0.1c3-1.1,2.5-0.3,2.8,1.4c0.2,0.8,0.1,1.4,1,1.5c0.4,0-1.9,1.9,1.8,0.7  c0.5-0.2,0.6,0.7,0.7,1.2c0.1,0.4-1.1,1-0.9,1.2c1.2,1.3,1.4,0.9,2.2,2.5c0.4,0.8,0.2,1.9-0.5,2.5  C392.6,106.3,392.2,106.6,391.8,106.9z M229.7,20.3c0.4-0.4,1.3-1.3,1.7-1.7c0.2-0.1,0.3-0.4,0.3-0.6c0-2.3,0-4.5,0-6.8  c0-0.2,0-0.5-0.1-0.7c-3.2,2.4-0.9-1.8-0.1-2.5c0.1-0.3,0.2-0.6,0.2-0.9c0-0.8-0.1-1.6,0-2.4c0.1-1.2,0-2.4,0-3.6  c0-0.3-0.1-1.1-0.2-1.1c-0.2,0-0.7,0.4-0.9,0.6c-0.8,0.8-1.6,1.7-2.5,2.5c-1.6,1.6-3.3,3.1-4.9,4.7c-1.7,1.6-3.3,3.3-4.9,5  c-1,1-1.9,1.8-2.8,2.8c-1.2,1.3-2.3,2.7-3.6,4c-1.3,1.2-2.7,2.3-4,3.6c-2,2-4.1,4.1-6.1,6.1c-0.9,1-1.9,1.9-2.8,2.9  c-1.2,1.2-2.3,2.5-3.5,3.7c-0.9,0.9-2,1.7-2.9,2.6c-2.4,2.4-4.8,4.8-7.2,7.2c-1.5,1.5-3.1,3.1-4.6,4.6c-0.6,0.6-0.6,0.9,0,1.5  c0.2,0.2,0.5,0.4,0.7,0.6c-0.2,0.2-0.2,0.4-0.3,0.5c0.1,0.1,0.1,0.1,0.2,0.2c1,1,2,1.9,2.9,2.9c0.4,0.3,1,0.6,0.7,1.3  c0,0,0.1,0.1,0.2,0.2c1.7,1.6,2.4,2.4,4,4.1c0.3,0.4,0.4,0.3,0.7,0c0.4-0.4,4.2-4.1,4.7-4.5c0,0.1-2.9,3.7-2.9,3.7  c-0.3,0.4-1,1.3-1.3,1.7c0,0.1,0.7,0.1,0.7,0.1c0.2-0.2,0.4-0.3,0.7-0.5c-0.2,0.7-1.1,0.9,0,1.7c0.6,0.6,1.3,1.2,1.8,1.8  c0.6,0.7,0.9,0.6,1.5,0c11.9-11.9,24.4-24.1,36.3-36c0.2-0.2,0.3-0.6,0.3-0.9c0-2.2,0-4.4,0-6.6c0-0.2,0-0.3,0-0.6  c-0.7,0.6-1.4,1.2-2.1,1.8l-1.8,1.4c0.5-0.6,2.8-2.7,3.4-3.2s0.6-1,0.5-1.6c-0.2,0.1-0.3,0.2-0.4,0.2c0.1-0.4,0.3-0.8,0.5-1.2  c-0.1,0-0.1-0.1-0.2-0.1c-0.4,0.3-0.8,0.6-1.2,0.9C230.3,19.7,229.7,20.2,229.7,20.3z M194.5,2.5c-0.9,0.8-1.9,1.7-2.8,2.6  c-0.6,0.5-1.1,1.2-1.7,1.8c-1.1,1.1-2.3,2-3.4,3.1c-1,0.9-1.8,2-2.7,2.9c-0.8,0.8-1.8,1.6-2.6,2.4c-7.5,7.6-15.1,15.2-22.7,22.7  c-0.2,0.2-0.2,0.4-0.2,0.6c0.2,0.9,0.1,1.8,0.1,2.7c0,0.2-0.1,2.1,0,2.3c10.1-8.6,6.3-5,0.4,1.7c0,0.1-0.1,0.1-0.1,0.1  c-0.4,0.5-0.4,1.6-0.4,2.4c-0.1,6.6,0,12.3,0,18.8c0,0.3-0.1,0.5,0.3,0.7c0.3,0.2,0.5-0.1,0.7-0.3c4.7-4.7,9.4-9.5,14.1-14.2  c1-0.9,1.9-1.9,2.8-2.9c0.8-0.9,1.5-1.7,2.3-2.5c0.3-0.3,0.7-0.5,1.1-0.8c2.2-1.8,3.9-4,5.8-6.1c1.1-1.2,2.4-2.4,3.6-3.6  c0.7-0.7,1.7-1.3,2.4-2c5.6-5.5,11.2-11,16.7-16.6c0.6-0.6,1.2-1.2,1.8-1.9c0.5-0.4,0.1-0.3,0-0.5c-0.1-0.2-0.3-0.4-0.4-0.6  c-0.4-0.6-0.6-0.7-1.3-0.4c-0.1-0.1-0.2-0.1-0.3-0.2c-0.3-1.3-1.3-2.4-2-2.8c-0.5-0.5-0.4-1-1.1-0.9c-0.1-0.1-0.1-0.3-0.2-0.4  c-0.1-0.1-0.3,0-0.4,0.1c-0.3,0.3-2,2-2.4,2.3c-0.5,0.4,0.6-1.1,0.7-1.3c0-0.1,0-0.1,0-0.1c0.1-0.3,1-1,1.1-1.2l-0.1-0.4  c-0.3,0.2-0.6,0.6-0.9,0.9c-0.5,0.3-1,0.6-1,0.6c0.2-0.3,0.8-1.1,1-1.4s0.5-0.5,0.6-0.7c-0.1-0.2-0.4-0.3-0.4-0.5  c-0.2-0.5-0.7-1-1.2-1.1c-0.7-0.1-1.5-0.1-1.4-1.1c0-0.1-0.1-0.1-0.1-0.2c-0.4-0.6-0.7-1.3-1.1-1.9c-0.1-0.1-0.3-0.2-0.4-0.2  c-0.6,0-1.2,0.1-1.7,0.1c0.1-0.2,0.2-0.5,0.2-0.8s0-0.9-0.4-1.1l-1.4,0.8L195.3,2C194.8,1.7,194.4,2.4,194.5,2.5z M67.7,121.2  c-0.5-0.7-0.7-1-1.2-1.7c-2.9-4.2-5.7-7.8-8.6-12.1c-0.8-1.1-1.2-0.3-1.9-1.5c-0.2-0.4-0.3-0.9-1-0.6c-0.1,0-0.2-0.2-0.3-0.2  c-0.3-0.1-0.7-0.1-0.9,0s-0.9-0.1-1,0.1c-0.2,0.4,0,0.9-0.2,1.4c-0.2-1.7,0.4-1.5-1.7-1.6c-1,0-1.9,0.1-2.9,0.1c-0.1,0-0.2,0-0.3,0  c-1.6,0.1-1.8-0.2-1.8,0.8v0.6c-0.1,0-0.1,0-0.1-0.4c-0.1-0.4,0-0.6-0.1-0.9c0-0.2-0.3-0.1-0.4-0.1s-0.4,0-0.5,0.1s-0.1,1-0.1,1.2  c0,17.2,0,32.8,0,50c0,0.3,0.1,1,0.1,1.3c0,0.6,0.1,2.9,1.1,2.8c0.6,0,1.5,1.7,2.1,1.5c0.1,0,0.2-4.7,0.3-4.7c0.2,0,0.4,6.2,0.5,6.2  c0.5,0,0.7-0.3,1.2-0.1c0.2,0,0.3,0.1,0.5,0.1c2.2-0.5,0,1,2.2,0.7c1.2-0.1,1.9,0.1,2.8,0c1.1-0.1,0.7,0.4,0.9-3.8  c0.1-0.4,0.2-0.9,0.6-1.2c0.8-0.7,1.2,0.4,1.1-1c0-2,0-5.7,0-7.7c0-5.9-0.1-11.8-0.1-17.7c0-0.5-0.1-2.3,0-3  c0.8,0.9,1.2,1.6,1.3,1.8c3.9,6.1,7.4,12.1,11.4,18.3c0.3,0.5,0.8,1.1,1,1.6c0.6,0.8,1.2,1,1.8,1c0.7,0,1.3,0,2,0  c1.5,0,2.5,0.1,4,0.1c0.5,0,0.5-0.2,0.5-0.7c0-0.7,0-2.5,0.1-3.1c0.2,0.6,0.2,2.3,0.2,2.9c0,1.3,0.4,1,1.3,1  c0.6,0.1,0.4-0.9,0.4-1.3c0-17,0-36.1,0-53.1c0-0.3-0.1-0.5-0.1-0.8c-0.1,0-0.2-0.9-0.3-0.9c-0.1,0.3-0.7,2.1-0.8,2.4  c-0.3-0.3-0.1-1.2-0.4-1.5c-0.2-0.1,0.1-3.4-0.1-3.4c-0.4,0-1.2,0-1.7,0c-1.1,0-1.3,0-1.4,1.1c-0.2,0-0.4-0.2-0.6-0.1  c-0.3,0.2-0.7,0.2-0.9,0c-0.2-0.1-0.3-0.5-0.5-0.5c-0.4,0-1,0-1.4,0c-2,0.1-1.4-0.5-1.5,3.8c0.1,0.2-0.1-1-0.1-0.2  c-0.3-0.6-0.4-0.7-0.4-1.5c0-0.3,0-0.3-1.6-0.3c0,0.1,0,0.7,0,0.7c-1.2,0.1-1.3,1.1-1.3,3.4c0,1.2-0.8,0.7-0.8,1.9  c0,6.6,0,12.9,0,19.1 M7,102.9c-0.2-0.2-0.4-0.3-0.6-0.4c-0.1,0-0.3-2.4-0.4-2.4C5.6,100,5.3,100,4.9,100c-0.2-0.1-0.1,1-0.3,1  c-0.4,0-1.3,0-1.7,0c-0.5-0.1-0.2-0.7-0.7-0.7c-0.1,0-0.5-0.2-0.6,0.1c-0.2,0.6-0.3,1.9-0.4,1.9c-1-0.3-1.2,0.1-1.2,1.1  c0,11.1,0,21.2,0,32.3c0,2.7,0.3,5.5,0.9,8.2c1.7,5.2,4,7.3,6,9.1c1.5,1.4,4,3.2,6.5,4c4.7,1.5,10.2,0.6,12.6-0.2  c3.6-1,5.3-2.1,8.1-4.4c0.6-0.5,1.2-1.1,1.7-1.7c3-3.8,4.4-9,4.4-13.8c0-12.5,0.1-1.8,0.3-35.9c0-0.5,0.9-1.7,0.9-2.2  c0-0.4-1.9-0.3-2.3-0.3c-1.1-0.1-2.3,0-3.4,0c-1,0-1.6,0.5-2.6,0.5c-0.4,0-0.8-0.1-0.9,0.4c-0.1,0.7-0.7,5.4-0.8,6  c-0.7-4.7,0.6-6.6-0.8-6.4c-1.4,0-2.9,0-4.3,0c-0.6,0-1,0.5-1,1c0,12.2,0,22.2,0,34.3c0,1.1,0,1.2-0.2,2.2c-0.8,3.2-2.7,4.3-6.5,4  c-1.9-0.3-3.2-1.1-4-3.4c-0.3-2.6-0.2-4.8-0.4-7.4c0.4-10.9-0.1-15.3-0.1-24.8c0-1.3,0.6-1.9-1-1.8c-0.9-0.1-1.7-0.1-2.6-0.1  c-0.2,0-0.3,0.2-0.5,0.3c-0.7-0.2-1.4-0.4-2.1-0.2c-0.3,0.1-0.3,1.1-0.5,1.7C7.3,104.7,7.2,103,7,102.9z M145.4,114.8  c5,0,8.8,0,13.9,0c1.1,0,1.1-0.8,0.9-1.8c-0.1-0.1-0.1-0.3-0.1-0.4c0-2.8,0-5.7,0-8.5c0-1.9,0-1.2-1.1-1.4c0-1.1,0.1-1.1-0.6-1.1  c-10,0-19.5,0.1-29.5,0.1c-0.2,0-1.2-0.1-1.4-0.1c-0.5,0-1.4,0-1.6,0.1c0.1,0.1,0.8,0.7,1.4,0.9c0.3,0.1,0.8,0.3,1.3,0.4  c0.4,0.1,0.5,0.1,0.9,0.4c-0.8,0.2-5-0.4-1.3,1.2c0.3,0.4,0.6,0.5,0.7,0.9c0.4,0.5,0.7-0.3,0.9,4.4c0.1,3.2,0,5.1,0,8.3  c0,0.7,0.1,3.5,0.1,4.2c0,1.3,0,1.9,0,3.2c0,1,0.1,2.3,0.1,3.3c-0.1,2.1,0,4,0,6.1c0,5.3,0.2,13.6,0.2,19.2c0,0.3,0.9,0.7,0.9,1  c0,0.7,0.5,1.2,1.2,1.2c1.2,0,2,0,3.1,0c0.2,0,0.4,0,0.7,0c0-1.1,0.3-2.2,0.3-3.2l0.3-1.9c0.1,1.1,0.2,4,0.3,5.1c0.3,0,0.3,0,0.5,0  c0.6,0,1.2,0,1.8,0c0.7,0,1.4,0,2.1,0c0.4,0,0.9-3.1,1.3-3.1c5.3,0,8.5,0,13.8,0c0.2,0,0.5,0,0.7,0c1.6,0,1.3-0.6,1.4-1.5  c0-0.6,0-1.1,0-1.7c0-1.7-0.8-3-0.6-4.6c0.1-1.2,0.1-2.3-0.1-3.5c-0.2-1,0.5-1.9-1.5-1.8c-3.9,0-4.9-0.3-8.8-0.3  c-1.1,0-3.6,0.1-4.8,0.1v-6.1c0.8,0,2.9-0.1,3.6-0.1c4.1,0,7.4,0.2,11.5,0.2c0.2,0,0.9-0.4,1-0.5c0.6,0.3,0.6,0.3,0.6-2.2  c-0.1-0.6,0-1.8,0-2.4c0-0.5-1.2-0.3-2-0.6c0.7-0.1,2,0.1,2-0.5c0-1.5,0.1-3.4,0.1-4.9c0-1.1-0.2-1.3-1.3-1.3c-3.3,0-5.7-0.1-9-0.1  c-1.6,0-4.7-0.1-6.4-0.1v-6.6C143.2,114.8,144.9,114.9,145.4,114.8z M174.9,16.2c-5.4-5.3-10.7-10.6-16-15.9  c-0.1-0.2-0.4-0.3-0.5-0.2c-0.2,0.1-0.3,0.4-0.3,0.6c0,3.2,0,6.3,0,9.5c0,0.3,0.1,0.6,0.3,0.9c0.3,0.4,0.7,0.8,1,1.2  c0,0.1-0.1,0.1-0.1,0.1c-0.3-0.3-0.6-0.6-0.9-0.9c0,0.1-0.1,0.1-0.1,0.1c0.3,0.4,0.5,0.8,0.8,1.2l-0.1,0.1c-0.3-0.3-0.5-0.7-0.8-1  c-0.2,0.9,0,1.5,0.6,2.1c0.4,0.4,0.7,0.9,1.1,1.4l-0.1,0.1c-0.5-0.6-1.1-1.1-1.6-1.7c-0.1,0.1-0.1,0.2-0.1,0.2c0,5,0,9.9,0,14.9  c0,0.2,0,0.3,0.1,0.4c0.6,0.6,1.3,1.3,2,2c0.1-0.2,0.3-0.4,0.4-0.5c3.6-3.6,7.1-7.1,10.7-10.7c0.8-0.7,0.8-0.7,0.1-1.5  c-0.4-0.4-0.7-0.9-1.1-1.4c0.1,0,0.1,0,0.1,0c0.7,0.7,1.3,1.3,2,1.9c0.9-0.9,1.8-1.8,2.7-2.7C175,16.3,175,16.3,174.9,16.2z   M229.1,36.6c-4.8,4.8-9.7,9.7-14.6,14.6c0,0.1,0,0.2,0,0.2c3.3,3.2,6.6,6.5,9.9,9.8c1.9,1.9,3.9,3.8,5.8,5.8  c0.3,0.3,0.9,0.6,1.1,0.5c0.2,0,0.1-0.1,0.2-1c0-0.7,0-1.4,0-2.1c0-0.1,0-0.3-0.1-0.4c-0.3-0.4-0.8-0.8-1.2-1.2  c-0.4-0.5-0.9-0.9-1.3-1.4c0.1,0-1.6-1.8-1.6-1.8c0.8,0.7,3.7,3.1,4.4,3.7c0-5.3,0-10.2,0-15.4c0-0.1-0.2-0.4-0.3-0.5  c-0.3-0.3-1.9-2.3-2.2-2.6c0,0,1.3,1.2,1.3,1.1c0.3,0.2,0.8,0.9,1.1,1.1c0.1-0.1,0.1-0.2,0.1-0.2c0-2.8,0-5.8,0-8.5v-0.1  c-0.7-0.6-1.3-1.3-2-2C229.5,36.3,229.5,36.3,229.1,36.6z M279.4,125c0.2,3.6-0.7,7-2.1,10.3c-1.4,3.2-3.5,5.9-5.9,8.3  c-1.6,1.6-3.1,3.3-5.2,4.4c-2.2,1.1-4.3,2.2-6.6,2.7c-1,0.2-1.9,0.1-2.9,0.2c0,0.1-3.1-0.4-3.1-0.5s2.4-0.1,2.5-0.2c0,0,1.9,0,2,0  c1.6-0.6,1.9-1.1,3.5-1.6c1-0.4,2.1-0.7,2.6-1.6c0.3-0.4,0.5-0.8,0.9-1.1c0.6-0.5,1-0.4,1.6-0.8c0.1-0.1,0.9-0.8,1-0.9  c0.3-0.4,1.2-1.6,1.2-1.7c-1,0.6-4.1,2.9-5,3.6c-1.6,1.2-3.2,2.2-5.3,2.4c-2.2,0.1-4.3,0.8-6.5,0.5c-2-0.3-4-0.5-6-1.1  c-1.9-0.6-2.8-1.3-0.7,0.4c0.2,0.2,0,0.6,0,0.9c0,0.7-0.3,1-0.8,1.1c-0.2,0.1-0.2,0.4,0,0.5c0.7,0.3,1.4,0.6,1.4,1.5  c0,1.1,0,1,1.1,1.2c0.7,0.1,0.7,0.2,1.1,0.9c0.1,0.2,0.5,0.2,0.8,0.3s0.5,0.3,0.8,0.5c-0.3,0.2-0.7,1.4-0.9,1.4  c-12.1,0-24.4,0-36.6,0c-0.2,0,0.2,1.2-0.1,1.2c-0.2,0-0.6,0-0.9-0.1c-0.3-0.1-0.4,0.1-0.6,0c-0.3-0.2-1.7-2.5-2-2.7  c-0.1,0.1-0.3-0.2-0.4-0.2c-0.4,0.4-0.2,0.4-0.2,0.8c-0.1,0.7,0,1.1-0.4,1.3c-0.6,0.3-0.5,0.4-1.1,0.8c-0.3-0.4-0.5-0.4-0.9-0.9  c0-0.1-0.1-0.1-0.2,0c-0.2,0.2,0.4,1-1.3,1.3c-0.1,0.1-0.8-0.8-0.9-0.9l-0.7-1.3c-0.2-0.5-0.6-0.3-1.2,0.1c-0.4,0.3-0.4-0.3-1.4-1.1  c0,0.2,0.1,0.3,0.1,0.4c0.1,0.1,0.1,0.3,0.2,0.4c-1.7,1-1.9,0.9-2.6-0.1c-4.6-6.7-9.1-13.3-13.7-20c-0.4-0.5-0.7-0.6-1.4-0.6  c-1.7,0-2.8-0.1-4.3-0.2c-2.3-0.1-2.3-0.1-2.3,0.7c0,6.1,0,12.3,0,18.4c0,0.3,0,0.7-0.2,0.9c-0.1,0.1-0.4,0-0.6,0.1  c-0.3,0.1,0.2,1.1-0.1,1.1c-0.4,0-0.4,0.3-0.8,0.3c-0.5,0-1,0.2-1.4,0.6c-0.2,0.2-0.5,0.3-0.6,0.4c-0.2-0.4,0.4-1.4,0.2-1.8  c0-0.1-0.3,0.7-0.5-0.4c-0.3-1.1-0.8,1.3-1.5,1.5c-0.7,0.2-1.1-1.1-1.8-1.2c-0.5-0.1-1.5,0.7-2,0.5c-0.2-0.1-0.3,0.1-0.5,0.1  c-0.8,0-0.9-0.4-1.6-0.4c-0.1,0-0.8,0.4-1,0.4c-0.3,0-3.1-0.1-3.4-0.1c0-0.2,0.8-0.8,0.9-1.1c0-0.1,0.9-0.3,1-0.4  c1.8-1.6,1.3-4.1,1.3-6.3c0-1.9,0-3.8,0-5.7c0-7.7-0.1-15.3-0.1-22.9c0-3.6,0.2-7.2,0.2-10.8c0-5.3,0.01-4.41-1-7.3  c0.13,0.35,0.08,0.2-0.7-0.3c-0.09-0.07-0.71-0.61-0.71-0.71c-0.01-0.2,0.32-0.29,0.08-0.34c-0.29-0.12,0.26-0.24,0.26-0.24  c-2.29-0.68,1.46-0.91,2.36-0.91c2.1,0,4.5,0.4,6.6,0.5c4.9,0.3,9.4,0.5,14.2,0.5c2.9,0,4.8,0.3,7.3,1.6c3.9,1.9,6.4,4.6,8.3,8  c1.5,2.6,2.2,5.6,2.1,8.7c-0.2,3.8-2.3,6.9-4.3,9.9c-0.5,0.7-1.1,1.4-1.7,2c-0.3,0.3-0.2,0.6,0,0.9c3.5,4.7,6.9,8.8,10.4,13.5  c0.6,0.8,1.6,1.8,2.2,2.6c0.1,0.2-0.5-0.4-0.2-0.1c0.1-0.4,0.1-0.4,0.1-0.7c0-1.9,0-3.8,0-5.7c0.1-10.1,0.1-20.1,0.1-30.2  c0-1.9-0.1-2.7-0.5-5.3c-0.2-1.5-0.9-1.7-1.8-2.8c-0.2-0.3-1-0.9-1.2-1.2c0.5-0.6,1.8-0.7,2.7-0.1c0.3-0.2,0.6-0.4,1-0.6  c0,0,0-0.2,0-0.3c0-0.6,0.5-0.1,1.1-0.1s1.3,0,2,0c0.7,0,1.2-0.8,1.9-0.8c0.4,0,0.8,0,1.2,0c0.6,0,1.1,0.1,1.6,0.1  c0.1,0.4,0.1,0.8,0.1,1.2c1.8,0.2,3-1.5,4.8-1.3c0.1,0.4,0.1,0.8,0.2,1.2h1.3c0.1,0,0.2,0.1,0.2,0.2c0,0.8-0.1,3-0.1,3.3  c0,12.5-0.3,25.1,0,37.7c0,1.9-0.4,1.6,2.8,1.6c1.9,0.1,3.3,0.1,5.2,0.1c4.1,0,5.1,0.2,6.4,0.1c-0.2-0.3-2.5-1.4-2.7-1.6  c-2-1.6-3.2-3.3-4.7-5.4c-2.1-3.1-3.1-6.4-3.2-10.1c-0.2-4.3,0.7-8.3,2.9-12.1c0.1-0.2,0.1-0.3,0.2-0.5c0.2-0.5,0.3-1.2,0.6-1.6  c1.1-1.5,2.3-3,3.5-4.4c0.3-0.4,0.7-0.6,1-0.8c1.8-1.2,3.2-2.7,5-3.8c1-0.6,2.4-0.8,3.5-1.3c0.1-0.1,2.1-0.5,2.4-0.5  c-2.7,1.3-5.8,3.5-6.8,4.3c-0.1,0.1-0.1,0.1-0.1,0.1c-0.2,0.3-1.8,2.5-1.7,2.6c1-1.1,3.6-3,4.5-3.8c2.5-2.1,5.5-2.6,8.7-2.5  c1,0,1.9-0.1,2.8-0.5c1.2-0.5,2.4-0.6,3.6,0c0.7,0.4,1.5,0.4,2.2,0.5c0.2,0,0.4-0.1,0.6,0c4.1,1.5,8.2,2.8,11.6,5.6  c0.1,0,0.1,0.1,0.1,0.1c1.9,2.4,3.9,4.6,5.5,7.2c1.2,1.9,1.9,4,2.1,6.3C279.5,122.3,279.8,123.5,279.4,125z M188.2,119.2  c1.1-2.3,0.7-6-2.8-7.3c-1.7-0.6-2.4-0.4-3.8-0.5c0,0.1,0,0.1,0,0.1c-2.4,0-3.6,0-5.9,0c-0.2,0-0.3,0.2-0.3,0.3  c0,3.2,0.1,6.4,0.1,9.6c0,0.1,0.2,0.2,0.3,0.2c2.5,0,4.9,0.2,7.3,0c1.3-0.1,1.7,0,3-0.4C186.6,121.1,188.1,119.8,188.2,119.2z   M265.5,124.9c-0.2-2.8-1.4-4.4-3.2-6.5c-0.5-0.6-1-1-1.6-1.3c-1.8-0.9-4-1.6-5.9-2l0,0c-0.8,0.1-1.5,0.1-2.3,0.2  c-2,0.2-3.6,0.7-5.3,1.8c-3,2-5,4.7-4.8,8.4c0.3,4,2,6.9,5.7,8.5c2.6,1.1,5.4,1,8.2,0.5c2.6-0.5,4.9-1.6,6.8-3.4  C264.9,129.4,265.7,127.4,265.5,124.9z M369.4,124.7c0.3,4.1-0.4,7.9-1.7,11.6c-0.8,2.4-2.2,4.4-3.8,6.3c-1.2,1.5-3.6,3.6-5.2,4.6  c-1.4,0.9-3.7,1.9-5.1,2.7c-3,1.6-6.2,2-9.5,2.8c-2.1,0.5-4.6,0.2-6.8,0.6c-0.3,0.1-0.7,0.1-1.1,0.1c-1.1,0-1.7,0-2.8-0.1  c-0.4,0-0.8-0.1-1.1,0c0.2,0.3,1.6,1.7,1.8,2c0.3,0.3,0.8,0.6-0.2,0.9c-0.4,0.2-0.8,0.5-1.1,0.8c-0.4,0.4-0.8,0.4-1.1-0.1  c-0.3-0.5-0.8-0.5-1.2-0.1c-0.5,0.4-0.4,1-0.8,0.6c0-0.1-0.1-0.1-0.1-0.2c-0.4-0.4-0.7-0.7-1.5-0.6c-1.4,0.2-0.7,1.4-0.2,2.1  c0,0-0.3,0.5-0.2,0.6c-0.4,0.5-1-0.7-1.4-1.1c-0.6-0.6-0.7-0.8-1.2-1.4c-0.1-0.2-0.4-0.2-0.6-0.1c-0.7,0.5-1.4,1.1-2.1,1.5  c-0.2,0.1-0.7,0-0.9-0.2c-0.5-0.4-1.3-1.3-1.7-1.8c-0.1,0-0.1,0.1-0.2,0.1c0.3,0.6,0.6,1.2,0.9,1.8c0,0,0.7,1,0.7,1.1  c-0.2-0.1-1.4-1.1-1.5-1.3c-1.4-1.7-3.3-4-4.6-5.8c-4.3-5.8-8-11.8-12.2-17.7c-0.4-0.6-1.4-1.1-2.1-1.1c-1.7,0-3.3,0-5,0  c-0.6,0-0.9,0.3-0.9,1c0,0.4,0.1,1.5,0.1,2c0.1,5.9,0,11.9-0.1,17.8c0,0.3-0.1,0.5-0.3,0.7c-0.1,0-0.7-1.8-1-1.9  c-0.1,0.9,0.6,4.2-2.5,2.8c-1.5-0.8-3.3-0.8-4.9,0c-1.5,0.7-1.9-0.4-3-0.4c0.1-0.5,0.2-1,0.3-1.4c-0.1,0-0.1-0.1-0.2-0.1  c-0.3,0.3-0.5,0.5-0.7,0.8c-0.2,0.4-0.8,0.6-1.2,0.3c-0.7-0.4-1.4-0.8-2.2-1.2c0.1-0.3,0.3-0.5,0.4-0.7c0.5-0.8,1.1-1.6,1.6-2.4  c0.7-1.2,0.9-2.5,0.9-3.9c0-8.8,0-17.5,0-26.2c0-4.9,0.1-9.8,0-14.7c0-1.5-0.8-2.8-2.3-3.5c-0.6-0.3-1.31-0.27-1.44-1.4  c0.3,0-0.56-0.23-0.16-0.23c0-0.1,0-0.1,0-0.2c-0.5-0.1-0.1-0.32-0.12-0.52c-0.2,0,0.04-0.12,0.12-0.25c0.14-0.17,0.4-0.4,0.6-0.4  c0.8-0.2,1.6-0.3,2.5-0.3c2.5-0.1,5.1-0.3,7.6-0.3c4.9,0,9.6,0.2,14.5,0.3c2.5,0.1,5.7,0.5,7.9,1.7c1.4,0.8,2.9,1.6,4.1,2.7  c2.9,2.7,5.8,6.6,6.2,10.6c0.6,6.3-2,8.3-4.6,12.1c-0.5,0.8-1.4,1.4-2.1,2.2c-0.1,0.2-0.1,0.4,0,0.6c4.1,5.4,7.8,11.1,12,16.5  c0,0,0.4,0.6,0.5,0.6c0-0.4,0-1.4,0-1.7c0-11.1-0.2-22.2,0-33.3c0.1-4-0.9-4.1-2.6-5.4c-0.5-0.4-1.3-0.7-1.7-1.1  c-0.2-0.2-0.3-0.5-0.5-0.7c0.3-0.2,2.4,0,2.7-0.2c-0.1-0.1-1.4-0.5-1.5-0.6c-0.2-0.1-0.3-0.2-0.5-0.3c0.1-0.2,0.1-0.4,0.3-0.5  c2.1-1.1,1.3-0.7,4.4-1.1c1.5-0.2,3.1-0.1,4.6,0c1,0.1,2.1-0.1,3.1-0.1c2.4,0.1,5.6,0.1,8,0.2c3.6,0.2,7.2,1.2,10.4,2.9  c2.1,1,3.3,2,4.1,2.7c0.3,0.2,1.2,1.1,2.2,2.4c0.8,1,1.7,2.5,2.5,4.4c-0.1-1-0.9-2.9-1.7-4.3c-0.8-1.5-2.7-3.5-3.4-4.2  c1.7,0.7,4.4,3.1,5.4,4.5c1.5,2,2.7,4.6,3.8,6.8c0.7,1.3,0.8,2.9,1.2,4.4C368.5,122,368.8,123.2,369.4,124.7z M306.9,113.3  c-0.3-1.4-1.5-2.3-2.9-2.5c-0.6-0.1-1.3-0.1-1.9-0.1c-1,0-2.1,0-3.1,0c-1.4,0-2.7,0-4,0c-0.9,0-1.1,0.6-1.1,1.4c0,2.3,0,4.7,0,7  c0.1,0.5,0.5,1,1.1,1c2.2,0,4.3,0.1,6.5,0c0.9,0,1.9-0.2,2.8-0.5C306.8,118.8,307.8,116.1,306.9,113.3z M353.3,120.8  c-2.1-4.3-5.7-5.4-10.3-5.6c-0.3,0-0.6,0-0.9,0c-1,0.1-1.2,0.2-1.2,1.2c0,6.8,0,13,0,19.7c0,1,0.3,0.9,1.3,0.9c0.2,0,0.4,0,0.6,0  c2.9-0.2,5.4-0.5,7.7-2.3C355.1,131.2,355.9,125.7,353.3,120.8z M127.9,128.6c-0.1,1.4-0.5,3.7-0.8,5c-0.2,1.1-0.1,1.6-0.5,2.8  c-0.1,0.2-0.3,1.2-0.4,1.4c-2,3.9-4.5,7.7-8.1,10.1c-0.5,0.3-2,1.5-2.1,1.5c-0.1-0.1,2.1-2.4,2.3-2.7c0.4-0.5,0.6-0.9,0.7-1  c0.8-0.7,1.7-1.6,2-2.8c0.2-0.6,0.9-1.5,1.5-1.9c1.4-1.1,1.2-2.7,1.6-4.3c-0.6,1.7-2,3.3-3.1,4.7c-0.7,0.9-0.9,2.2-1.6,3.1  c-0.3,0.5-1.3,0.8-1.8,1.2s-1.1,1-1.4,1.5c-0.8,1.1-1.7,1.3-2.8,1.9c-2,1-4.1,1.6-6.3,2.1c-3,0.7-5.6,1-8.7,1.2  c-3.7,0.2-7.4,0.2-10.8,0.1c-0.3,0-0.6-0.3-0.6-0.6c0-1.5,0-4.2,0-6.4c0-1.3,0.1-2.6,0.1-3.9c0-2.5,0-4.9,0-7.3  c0-2.1,0.1-4.2,0.1-6.3c0-2.5,0-5.1,0-7.7c0-5,0-9.5,0-14.5c0-0.3-0.2-0.9-0.2-1.1c-0.1-0.5-0.1-0.5-0.4-1.1c-0.1-0.3-0.3-0.6,0.3-1  c-0.3-0.1-0.3-0.4-0.6-0.5c0-0.6,0.2-1.1,0.7-1.1c3.2,0,5.4,0,8.6,0c1.4,0,2.8-0.1,4.1,0c4.3,0.2,7.6,1.3,11.3,2.3  c3.3,0.9,6.1,2.7,8.9,4.6c2.6,1.8,4.4,4.2,5.9,7c1.1,1.9,1.5,4,1.7,6.2C127.7,123.8,128.2,122.7,127.9,128.6z M108,117.4  c-2.6-1.1-5-1.2-7.8-1.1c0,0-0.1,0-0.1,0.1c0,3.5,0,6.9,0,10.4c0,3.1,0,6.1,0,9.2v0.1c0,1.1,0.2,0.9,1.3,0.7c1.8-0.2,3.5-0.5,5.3-1  c4.3-1.1,7.1-4.5,7.3-9.1C114.2,122.9,112.4,119.2,108,117.4z M48.7,158.6 M41.1,101.4 M363.8,102.3 M162.4,81.5  c0,1.7,0,3.1-0.1,3.9c0,0.5-0.1,0.9-0.5,1c-0.2,0.1-0.4,0.1-0.7,0.1c-0.2,0-0.3,0-0.3,0.1s0.2,0.2,0.4,0.2c0.4,0,0.9,0,1.3,0  s0.8,0,1,0c0.5,0,1.1,0,1.8,0.1c0.7,0,1.4,0.1,2.1,0.1c3.4,0,5.3-1.2,6.1-2.1c1-1.1,2-2.8,2-5.1c0-2.1-0.9-3.7-1.8-4.6  c-2-2.1-5-2.1-7.3-2.1c-1.1,0-2.2,0.1-2.8,0.1c-0.5,0-1.6-0.1-2.6-0.1c-0.3,0-0.4,0-0.4,0.2s0.1,0.2,0.3,0.2c0.2,0,0.6,0.1,0.7,0.1  c0.6,0.1,0.8,0.4,0.8,1s0,1.1,0,3.9V81.5z M164.7,80.5v-2.2c0-1.4,0-3,0-3.6c0-0.2,0-0.3,0.2-0.4c0.2,0,0.8-0.1,1.2-0.1  c1.5,0,3.5,0.2,5.2,1.8c0.7,0.7,1.7,2.2,1.7,4.5c0,1.8-0.3,3.5-1.5,4.5c-1.1,0.9-2.3,1.3-4.2,1.3c-1.5,0-2.2-0.4-2.4-0.7  c-0.1-0.2-0.2-0.9-0.2-1.4C164.7,83.8,164.7,82.4,164.7,80.5L164.7,80.5z M188.2,87.3c4.6,0,7.5-3.3,7.5-7.5c0-4.2-2.8-6.8-7.3-6.8  c-5.4,0-7.5,4-7.5,7.1C180.9,83.3,183,87.2,188.2,87.3z M189,86.3c-3.5,0-5.6-3-5.6-6.8c0-4.5,2.4-5.7,4.5-5.7c3,0,5.3,2.5,5.3,6.6  C193.2,85.7,190.3,86.3,189,86.3z M205.5,74.2v7.4c0,1.7,0,3.1-0.1,3.9c0,0.5-0.1,0.9-0.5,1c-0.2,0.1-0.4,0.1-0.7,0.1  c-0.2,0-0.3,0-0.3,0.1s0.2,0.2,0.4,0.2c0.7,0,1.9-0.1,2.3-0.1c0.6,0,1.7,0.1,2.9,0.1c0.2,0,0.3-0.1,0.3-0.2c0,0-0.1-0.1-0.3-0.1  c-0.2,0-0.6-0.1-0.9-0.1c-0.5-0.1-0.6-0.5-0.7-1c-0.1-0.8-0.1-2.2-0.1-3.9v-7.5l2.3,0.1c1.6,0,2.1,0.5,2.1,1v0.2  c0,0.3,0.1,0.4,0.2,0.4s0.2-0.1,0.2-0.3c0-0.5,0.1-1.7,0.1-2.1c0-0.3,0-0.4-0.1-0.4s-0.2,0-0.5,0.1c-0.3,0-0.7,0.1-1.3,0.1h-7.2  c-0.6,0-1.3,0-1.8-0.1c-0.5,0-0.7-0.2-0.8-0.2s-0.1,0.1-0.2,0.3s-0.4,1.8-0.4,2.1c0,0.2,0.1,0.3,0.2,0.3s0.2-0.1,0.2-0.2  s0.1-0.3,0.3-0.6c0.3-0.4,0.7-0.5,1.8-0.5l2.7-0.1H205.5z M231.1,83c-0.2,0-0.2,0-0.6,0c-1.1,0.1-1.6,0.6-2.6,0.6  c0.1,0.2,0.2,0.5,0.3,0.7c0.7,1.7,1.2,1.9,1.6,2c0.3,0.1,0.6,0.1,0.8,0.1c0.1,0,0.2,0,0.2,0.1c0,0.2-0.1,0.2-0.8,0.2  c-0.6,0-1.9,0-3.4,0c-0.3,0-0.5,0-0.5-0.1s0.1-0.2,0.3-0.2s0.3-0.2,0.2-0.4l-0.8-2.2c-0.1-0.1-0.1-0.1-0.2-0.1h-5.3  c-0.1,0-0.2,0-0.2,0.1l-0.3,0.9c-0.2,0.4-0.3,0.9-0.3,1.1c0,0.4,0.1,0.6,0.7,0.6h0.3c0.2,0,0.3,0,0.3,0.1c0,0.2-0.1,0.2-0.3,0.2  c-0.6,0-1.3-0.1-1.9-0.1c-0.2,0-1.2,0.1-2.1,0.1c-0.2,0-0.3-0.1-0.3-0.2s0.1-0.1,0.2-0.1c0.2,0,0.5,0,0.6,0c0.8-0.1,1.1-0.7,1.5-1.6  l4.6-11.4c0.2-0.5,0.3-0.7,0.5-0.7s0.3,0.2,0.5,0.6c0.3,0.9,2.4,6.3,3.8,9.6c1.4,0,3.1,0,3.4,0C231.7,82.9,231.6,83.2,231.1,83z   M220.6,83.2h4.7c0.1,0,0.1,0,0.1-0.1l-2.3-6.3c0-0.1,0-0.2-0.1-0.2c0,0-0.1,0.1-0.1,0.2l-2.4,6.2C220.5,83.1,220.5,83.1,220.6,83.2  z M395.48,94.79v0.54h-1.04v2.72h-0.65v-2.72h-1.04v-0.54H395.48z M399,98.06l-0.12-1.92c-0.01-0.25-0.01-0.56-0.02-0.91h-0.04  c-0.08,0.29-0.18,0.67-0.28,0.97l-0.59,1.81h-0.67l-0.59-1.86c-0.06-0.25-0.16-0.63-0.23-0.92h-0.04c0,0.3-0.01,0.61-0.02,0.91  l-0.12,1.92h-0.62l0.24-3.26h0.97l0.56,1.59c0.07,0.25,0.13,0.49,0.22,0.83h0.01c0.08-0.3,0.16-0.58,0.23-0.82l0.56-1.61h0.94  l0.25,3.26H399z"
   id="path4"
   style="fill:#000000" />
</svg>