<?xml version="1.0" encoding="utf-8"?>
<!-- Generator: Adobe Illustrator 24.0.1, SVG Export Plug-In . SVG Version: 6.00 Build 0)  -->
<svg version="1.1"
	 id="svg3842" xmlns:cc="http://creativecommons.org/ns#" xmlns:dc="http://purl.org/dc/elements/1.1/" xmlns:inkscape="http://www.inkscape.org/namespaces/inkscape" xmlns:rdf="http://www.w3.org/1999/02/22-rdf-syntax-ns#" xmlns:sodipodi="http://sodipodi.sourceforge.net/DTD/sodipodi-0.dtd" xmlns:svg="http://www.w3.org/2000/svg"
	 xmlns="http://www.w3.org/2000/svg" xmlns:xlink="http://www.w3.org/1999/xlink" x="0px" y="0px" viewBox="0 0 399.262 403.557"
	 enable-background="new 0 0 399.262 403.557" xml:space="preserve">
<sodipodi:namedview  bordercolor="#666666" borderopacity="1.0" fit-margin-bottom="0" fit-margin-left="0" fit-margin-right="0" fit-margin-top="0" id="base" inkscape:current-layer="layer1" inkscape:cx="222.24668" inkscape:cy="130.86831" inkscape:document-units="px" inkscape:pageopacity="0.0" inkscape:pageshadow="2" inkscape:window-height="876" inkscape:window-maximized="1" inkscape:window-width="1535" inkscape:window-x="65" inkscape:window-y="24" inkscape:zoom="0.98994949" pagecolor="#ffffff" showgrid="false">
	</sodipodi:namedview>
<g id="layer1" transform="translate(-100.3686,-82.012784)" inkscape:groupmode="layer" inkscape:label="Layer 1">
	
		<linearGradient id="path3775_1_" gradientUnits="userSpaceOnUse" x1="402.162" y1="405.5151" x2="398.8531" y2="0.5161" gradientTransform="matrix(1 0 0 -1 -100.4238 486.8728)">
		<stop  offset="0" style="stop-color:#BB3119"/>
		<stop  offset="1" style="stop-color:#812112"/>
	</linearGradient>
	<path id="path3775" inkscape:connector-curvature="0" fill="url(#path3775_1_)" d="M107.65,89.489c0,0,12.5,12.856,27.5-2.5
		l2.341,4.367l10.859,0.506l2.525,2.02l1.515-4.04l1.515,0.252l2.778,3.788l2.02-2.272l4.545,0.253l2.778,3.03l1.768-1.768
		l18.183,0.505l4.294-2.525l0.505,2.525l8.081,1.01l3.283-4.546c0,0,4.798,6.819,13.384,7.324
		c8.586,0.505,25.759-0.505,25.759-0.505s5.051,4.798,6.818,0c1.768-4.799,0-3.031,0-3.031l7.071-0.252c0,0,2.273,1.263,4.546-8.587
		l2.525,5.304l1.263-5.556l7.829,0.758c0,0,3.536,2.777,6.061-3.536c0,0,19.193,8.081,27.527,0.253c0,0,5.304,4.546,14.142,3.788
		c8.84-0.758,23.234,6.818,23.486,18.183c0,0,3.283-2.778,16.668-2.525c-0.253-1.768,7.323-7.829,0-12.627
		c0,0,6.061-5.556,77.023,2.021c0,0,3.789-0.253,0.758-5.304c-3.03-5.051,4.799-2.777,3.031-3.03c0,0,2.271,15.657,10.858,6.06
		c0,0,19.698,9.345,19.95,0.758l3.789,2.273l10.858,0.252c0,0-1.263,5.304,11.112,7.829c0,0,4.545,20.455-1.516,23.738
		c0,0,7.576,36.113,2.272,99.248l-11.616,0.252l4.545,11.617c0,0-11.616,3.535-5.303,14.646c0,0,6.06-2.525,1.768,1.769
		c0,0-1.01,4.545,5.556,5.808c0,0-3.788,15.658,4.041,15.152c0,0-6.062,14.143-1.516,17.426c0,0-3.535,6.565-2.273,18.183
		c0,0-1.767,2.021-5.051-0.758c0,0-6.566,5.809,10.606,4.041l1.515,163.392c0,0-32.324-18.687-44.699-6.313l15.152,1.263
		l-1.01,2.021l-6.566,0.253c0,0,0.253,7.323-4.798,0.505c0,0-12.122,11.364-34.598,0.253c0,0-10.858,4.545-19.698-2.274
		c0,0-6.061-1.263-7.323,4.799c0,0-9.597-1.769-22.981,2.272l1.011-3.535h-1.768l-0.253,4.293c0,0-2.02,1.768-4.798,0.758
		l1.768-6.062c0,0-4.04-1.263-5.556,2.525l3.283-0.758l-1.011,4.294c0,0-7.829,7.828-17.425,1.515l9.849-0.758
		c0,0,1.768-1.263,1.516-3.03c0,0-38.639-0.505-37.376,2.525l3.031,2.273c0,0-12.88,4.798-18.689,0.757l-0.253-3.788l-2.02,0.253
		l-3.283,4.798c0,0-5.556-9.849-22.728-4.293l1.263,4.293c0,0-6.061-0.505-8.334,2.273l-9.596-15.657c0,0-14.142,6.565-21.213-1.011
		c0,0-1.263,0.253-1.768,3.788c0,0-5.809-0.252-8.587-9.091c0,0-4.546,1.263-2.778,9.091c0,0-4.798-5.303-5.051-8.334l-3.536,3.788
		l2.525,3.031l-1.263,1.515c0,0-5.303-5.556-7.576-4.293l0.252,3.283l-2.272,0.758l-3.031-4.546c0,0-3.283,1.768-3.536,4.293
		l-1.263-1.768l-1.768,1.263h-2.273c0,0-0.757-5.051-2.02-5.809l-1.263,3.283h-4.546v-3.03l-4.293,3.03c0,0-5.051-0.758-6.061,4.04
		l-2.778-1.263c0,0,0.505-5.303-1.515-7.576c0,0-2.778-1.263-3.283,5.304c0,0-3.283,1.263-4.293-3.535h-2.273l0.505,6.314
		c0,0-1.263-4.546-11.617-3.283c0,0-11.869,0.758-13.384-3.283l-1.01,6.314c0,0-0.758-5.556-11.869-0.505l-2.525-0.253l0.252-3.283
		h-1.515l-1.01,5.557l-2.525-0.506c0,0,2.525-4.293-0.252-5.303c0,0-4.041,1.01-4.546,5.051l-2.525-1.263l0.252-5.556l-11.617-1.768
		c0,0,7.576-13.637,2.021-58.589c0,0,0.252-15.657,2.778-19.697l6.061-0.253l1.768-42.932l-7.829-1.263
		c0,0-3.536-15.91-1.515-51.771c0,0,1.263-0.758,4.798,2.273l1.01-1.769l-3.536-2.02l0.253-3.788l6.818,3.788l0.505-15.152
		c0,0-13.889-6.314-5.051-28.79c0,0-12.374-38.891-3.788-129.552l-2.272-1.263c0,0-0.758,6.061-4.546,0.253l0.758-20.456
		l4.545,0.505l-0.505,1.516l-1.768,0.505l0.757,9.344l1.515,0.253L107.65,89.489z"/>
	<path id="path3800" inkscape:connector-curvature="0" fill="#FFFFFF" d="M147.341,163.33l96.975,103.541
		c0,0,7.324-1.011,9.596,4.798c2.273,5.809-1.515,0.758-1.515,0.758l-3.03-2.272l39.144,42.426c0,0-4.798-13.132,1.515-1.263
		c6.314,11.869,16.415,20.456,16.415,20.456l1.516-2.273l-5.809-6.565c0,0-4.293-5.051,1.768-1.768l7.576,9.849
		c0,0-1.768,5.556,4.041,10.353l-1.263-4.04c0,0,5.051,2.777,9.344,11.364l-0.253-3.283l4.293,4.041l-1.767,2.272l40.406,43.185
		c0,0,9.344,22.223,59.852,18.94c0,0,23.991-30.558,26.012-76.267l-33.335-22.476l-19.445-1.768l0.253-3.283l7.323,3.03l2.525,0.253
		l-4.294-3.535l2.022-2.273L246.841,198.432c0,0-10.102,0.506-9.597-6.061l-4.04-0.253l-2.273-2.272l-2.272,1.768l-1.263-1.263
		l1.515-2.525l-6.313-3.535l3.03,3.788l-1.515,0.758l-6.566-6.566l1.515-1.768l-29.799-20.961
		C189.262,159.542,175.625,144.894,147.341,163.33L147.341,163.33z"/>
	<path id="path3802" inkscape:connector-curvature="0" fill="#FFFFFF" d="M178.024,324.955l78.792,76.14l-55.811,17.931
		l-3.409-2.147c0,0-1.136,4.798-6.187,1.389c0,0,2.146,3.662,4.419-2.651c0,0-0.884-2.02-2.146,0l-0.884,1.894l-0.253-3.661
		l-2.272,1.515l-1.768-0.252l-0.379,3.282l-33.335-24.748c0,0-4.798-1.768-1.01-13.259
		C157.568,368.896,178.024,324.955,178.024,324.955z"/>
	<path id="path3804" inkscape:connector-curvature="0" fill="#FFFFFF" d="M415.789,227.096l8.081-51.896l-2.272,0.127l0.252,2.019
		c0,0-1.01,4.42-2.019,0.506c-1.011-3.915,1.262-5.051,1.262-5.051l2.652,0.757l0.126-1.642l-17.552-12.879
		c0,0-6.188-4.672-18.436-0.758c-12.248,3.914-50.254,13.511-50.254,13.511l66.291,50.887l0.883-1.768l-3.156-1.516
		c0,0-2.146-2.651,1.895-2.525c4.04,0.126,3.03,7.702,3.03,7.702h3.788l2.146,2.778L415.789,227.096z"/>
</g>
</svg>
