<?xml version="1.0" encoding="utf-8"?>
<!-- Generator: Adobe Illustrator 24.0.1, SVG Export Plug-In . SVG Version: 6.00 Build 0)  -->
<svg version="1.1" id="图层_2" xmlns="http://www.w3.org/2000/svg" xmlns:xlink="http://www.w3.org/1999/xlink" x="0px" y="0px"
	 viewBox="0 0 483.652 411.281" enable-background="new 0 0 483.652 411.281" xml:space="preserve">
<g>
	<path fill="#555555" d="M174.371,256.941c-24.292-10.541-41.251-34.367-41.251-62.09c0-37.49,30.996-67.883,69.231-67.883
		c13.014,0,25.186,3.528,35.586,9.651l61.158-30.822c-23.828-25.463-58.044-41.429-96.066-41.429
		c-71.991,0-130.351,57.224-130.351,127.813s58.36,127.813,130.351,127.813c0.76,0,1.516-0.016,2.273-0.028L174.371,256.941z"/>
</g>
<polygon fill="#006699" points="230.938,319.993 358.765,319.993 294.851,234.669 "/>
<g id="图层_3">
	<polygon fill="#66BBFF" points="422.417,64.368 168.33,192.423 230.938,319.993 	"/>
</g>
</svg>
