<?xml version="1.0" encoding="utf-8"?>
<!-- Generator: Adobe Illustrator 24.0.1, SVG Export Plug-In . SVG Version: 6.00 Build 0)  -->
<svg version="1.1" id="图层_1" xmlns:svg="http://www.w3.org/2000/svg"
	 xmlns="http://www.w3.org/2000/svg" xmlns:xlink="http://www.w3.org/1999/xlink" x="0px" y="0px" viewBox="0 0 378 429"
	 style="enable-background:new 0 0 378 429;" xml:space="preserve">
<path d="M377.1,89.1c0,103.9,0,207.7,0,311.6c-1.7,0.5-3.5,0.7-5.2,1.4c-20.9,8-41.8,16.1-62.7,24.1c-2.2,0.8-4.9,1.5-7.2,1
	c-29.9-5.9-59.8-11.9-89.8-17.9C151.5,397,90.7,384.8,29.9,372.6c-10-2-20-4.1-29.8-6.1c0-81.8,0-162.9,0-244
	c18.7-3.8,37-7.6,55.4-11.2c10.5-2.1,10.7-2,10.5-13c-0.6-25.1,6.9-47.5,22.6-67c14.9-18.4,33.5-30.5,57.9-30.8
	C183,0,215.3,25.3,224.4,60.8c1.3,5.1,2,10.3,3.1,15.9c8.4-1.7,16.5-3.3,25.1-5c-5.3-16.6-15.3-28.9-29.3-38.7
	c-8.1-5.7-15.1-13.1-22.6-19.7c15.4,2.1,28.4,8.7,39.7,18.8c11.3,10.2,18.7,23,23.5,37.3c13-2.6,25.3-5.1,37.7-7.3
	c2.1-0.4,4.9,0.2,6.7,1.4c8.8,5.6,17.4,11.7,26.2,17.3c2.7,1.7,6,2.8,9.2,3.3C354.8,85.9,366,87.4,377.1,89.1z M217,78.8
	c-2.3-8.7-3.6-16.9-6.7-24.5c-11.2-27.9-40.2-45.5-70.1-42.1c-18.8,2.1-32.8,12.8-44.1,27.4C80.9,59.4,75.3,81.8,78,106.7
	c7.9-1.6,15.5-3.3,23.1-4.5c3.4-0.6,4.5-1.8,4.8-5.3c3.2-30.5,16.8-55.3,41.8-73.3c8.8-6.3,16-6.1,25.4,0.4
	c-16.7,4.8-29.3,14.9-39.2,28.7c-9.8,13.7-15.9,28.7-16.7,46.3C150.5,92.2,182.8,85.7,217,78.8z M137.9,181.3c0,22,0,43.7,0,65.2
	c29.3,0,58.3,0,87.1,0c0-26,0-51.7,0-77.5C195.9,173.1,167.1,177.2,137.9,181.3z M137.9,250.1c0,22.1,0,43.7,0,65.4
	c29.2,4.1,58.2,8.2,87.2,12.3c0-26.2,0-51.9,0-77.7C195.9,250.1,167,250.1,137.9,250.1z M67,191.1c0,18.5,0,37,0,55.4
	c22.7,0,45,0,67.2,0c0-21.8,0-43.1,0-64.8C111.6,184.8,89.4,187.9,67,191.1z M66.9,305.6c22.6,3.2,44.9,6.3,67.3,9.4
	c0-22.1,0-43.6,0-64.9c-22.6,0-44.9,0-67.3,0C66.9,268.6,66.9,286.9,66.9,305.6z"/>
</svg>
