<?xml version="1.0" encoding="utf-8"?>
<!-- Generator: Adobe Illustrator 24.0.1, SVG Export Plug-In . SVG Version: 6.00 Build 0)  -->
<svg version="1.1" id="图层_2" xmlns="http://www.w3.org/2000/svg" xmlns:xlink="http://www.w3.org/1999/xlink" x="0px" y="0px"
	 viewBox="0 0 176.87 178.435" enable-background="new 0 0 176.87 178.435" xml:space="preserve">
<path fill="#22BBFF" d="M134.026,145.864l-8.904-12.995l-9.867-2.166l-11.317-50.456l8.911-1.043v-3.85h3.128l-5.054-35.857
	l-10.589-1.203v12.514h-7.701V37.332h-11.31l-0.963,12.754l-7.941,0.722V37.332l-10.589,2.406l-5.054,35.375h3.61l0.241,3.61
	l8.423,1.203l-12.995,51.74l-9.385,0.722l-10.107,14.439l-19.493,3.369h137.892L134.026,145.864z M76.751,121.318h4.813l-2.888,7.46
	l2.888,1.685l-14.92,5.294l-1.685,9.145l6.738,1.685H45.948l5.054-1.925l7.701-12.273l13.717-0.722l2.166-3.008H63.756v-2.767
	l8.904-0.963l1.925-2.647l-6.257,0.241l4.091-3.85l1.203-7.941h7.941l-2.166,7.46h-5.054L76.751,121.318z"/>
</svg>
