<?xml version="1.0" encoding="utf-8"?>
<!-- Generator: Adobe Illustrator 24.0.1, SVG Export Plug-In . SVG Version: 6.00 Build 0)  -->
<svg version="1.1" id="图层_2_1_" xmlns="http://www.w3.org/2000/svg" xmlns:xlink="http://www.w3.org/1999/xlink" x="0px"
	 y="0px" viewBox="0 0 53 66" enable-background="new 0 0 53 66" xml:space="preserve">
<path fill="#FFC800" d="M36.021,21.428c0,0-3.983-5.651-9.489-5.429c-16.56,0.67-24.479,40.7-0.038,40
	c18-0.516,15.58-20.777,15.58-20.777s-0.313-5.104-2.677-5.104c-3.068,0-3.9,5.935-5.935,5.935s-3.053-3.181-5.48-3.181
	s-2.74,4.541-5.246,4.541c-2.505,0-4.697-3.915-4.697-3.915s1.331,7.124,5.146,7.124c2.984,0,2.84-3.601,5.267-3.601
	s3.21,5.011,5.637,5.011s3.915-3.288,3.915-3.288s0.393,13.275-11.15,13.275c-17.225,0-14.529-30.03-0.631-30.03
	c3.403,0,5.275,1.757,5.873,2.586c0.9,1.247,2.527,2.177,3.965,1.089C37.841,24.319,36.605,22.439,36.021,21.428z"/>
</svg>
