<?xml version="1.0" encoding="utf-8"?>
<!-- Generator: Adobe Illustrator 24.0.1, SVG Export Plug-In . SVG Version: 6.00 Build 0)  -->
<svg version="1.1" id="图层_2" xmlns="http://www.w3.org/2000/svg" xmlns:xlink="http://www.w3.org/1999/xlink" x="0px" y="0px"
	 viewBox="0 0 55.565 63.412" enable-background="new 0 0 55.565 63.412" xml:space="preserve">
<path fill="#F5A04B" d="M38.478,34.469l3.004-4.123l-3.852-3.571l-2.624-2.696c-2.341-2.803-5.688-7.876-7.634-15.651
	c-2.02,9.249-11.656,18.069-11.656,18.069l-3.145,2.817L15,33.607L8.845,38.27c0,0,7.427,11.25,17.904,17.12
	C37.63,51.216,45.09,38.837,45.09,38.837L38.478,34.469z M13.658,40.785l-1.709-2.473l4.231-3.09l1.438-1.05l-0.877-1.55
	l-1.635-2.891l1.755-1.572l0.082-0.042c2.492,3.226,8.381,10.512,13.791,14.653l0,0c-1.059,1.391-2.363,2.576-3.848,3.5
	l-0.114,0.071c0,0-5.25-3.277-8.804-8.755L13.658,40.785L13.658,40.785z M39.922,41.519L39.922,41.519l-6.418-5.191
	c-1.346-1.042-2.606-2.192-3.765-3.438l-5.389-6.095l3.107-3.818c3.082,5.462,6.988,8.12,6.988,8.12l1.991-2.701l2.383,2.209
	l-1.957,2.687l-1.233,1.692l1.747,1.154l4.298,2.84L39.922,41.519z"/>
</svg>
