<?xml version="1.0" encoding="utf-8"?>
<!-- Generator: Adobe Illustrator 24.0.1, SVG Export Plug-In . SVG Version: 6.00 Build 0)  -->
<svg version="1.1" id="图层_1" xmlns="http://www.w3.org/2000/svg" xmlns:xlink="http://www.w3.org/1999/xlink" x="0px" y="0px"
	 viewBox="0 0 894.551 465.89" enable-background="new 0 0 894.551 465.89" xml:space="preserve">
<g>
	<path fill="#FFFFFF" d="M833.76,220.066c0,65.035,0,130.069,0,195.104c-257.92,0-515.84,0-773.76,0c0-121.76,0-243.52,0-365.28
		c88.425,0,176.85,0,265.275,0c-0.026,1.197-0.076,2.394-0.076,3.591c-0.004,77.644-0.003,155.288-0.003,232.932
		c0,0.719-0.031,1.44,0.012,2.156c0.03,0.508,0.16,1.01,0.317,1.935c1.083-0.845,1.905-1.435,2.669-2.093
		c1.388-1.195,2.713-2.463,4.113-3.642c4.704-3.961,9.434-7.892,14.146-11.845c1.834-1.538,3.638-3.112,5.472-4.65
		c1.261-1.058,2.629-1.241,4.248-0.765c5.358,1.575,10.748,3.043,16.132,4.53c0.491,0.136,1.026,0.111,1.694,0.176
		c-0.127-1.539-0.235-2.86-0.346-4.213c-0.613-0.214-1.132-0.408-1.658-0.578c-4.175-1.353-8.368-2.654-12.524-4.064
		c-5.405-1.835-7.086-4.249-7.093-9.922c-0.029-24.602-0.064-49.204-0.081-73.807c-0.001-0.953,0.096-1.918,0.259-2.859
		c0.497-2.871,2.665-4.476,5.51-3.922c1.709,0.333,3.365,0.957,5.031,1.493c14.587,4.693,29.182,9.361,43.75,14.113
		c4.925,1.607,9.774,3.446,14.668,5.15c2.029,0.706,2.751,2.28,2.964,4.223c0.061,0.554,0.05,1.117,0.051,1.676
		c0.063,23.004,0.125,46.009,0.186,69.013c0.002,0.77,0,1.539,0,2.623c-1.37-0.38-2.364-0.617-3.333-0.931
		c-12.606-4.077-25.208-8.167-37.814-12.244c-0.622-0.201-1.273-0.314-2.023-0.496c0,2.625,0.023,4.936-0.011,7.247
		c-0.015,1.022,0.316,1.684,1.387,1.89c0.466,0.09,0.911,0.292,1.367,0.439c9.719,3.145,19.428,6.319,29.165,9.408
		c1.985,0.63,3.285,1.713,4.078,3.667c1.001,2.467,2.33,4.815,1.756,7.739c1.077-0.962,1.947-1.966,2.773-3.005
		c6.316-7.94,12.618-15.891,18.936-23.829c3.283-4.125,6.562-8.255,9.905-12.332c1.171-1.429,1.705-2.917,1.672-4.799
		c-0.102-5.75-0.028-11.502-0.039-17.254c-0.058-30.194-0.121-60.387-0.182-90.581c-0.023-11.344,0.031-22.684,1.768-33.937
		c0.044-0.286-0.066-0.597-0.12-1.015c-0.619-0.043-1.159-0.134-1.695-0.11c-5.109,0.233-10.226,0.378-15.324,0.768
		c-3.892,0.297-7.754,0.96-11.64,1.352c-0.991,0.1-2.076-0.052-3.03-0.36c-9.112-2.941-18.206-5.939-27.305-8.923
		c-4.02-1.318-8.029-2.668-12.059-3.954c-6.916-2.209-13.857-4.342-20.762-6.586c-2.271-0.738-4.546-1.553-6.672-2.626
		c-5.061-2.556-9.138-6.429-12.819-10.62c-5.791-6.594-11.31-13.427-16.944-20.159c169.335,0,338.67,0,508.005,0
		c0,54.009,0,108.018,0,162.027c-0.813-0.322-1.612-0.692-2.443-0.96c-3.87-1.247-7.756-2.445-11.624-3.698
		c-19.505-6.315-39.005-12.643-58.511-18.955c-0.506-0.164-1.052-0.207-1.624-0.315c0,2.906,0,5.664,0,8.449
		c1.208,0.42,2.255,0.804,3.314,1.148c9.179,2.981,18.357,5.966,27.543,8.927c13.362,4.306,26.728,8.601,40.102,12.874
		C831.564,219.72,832.677,219.844,833.76,220.066z M716.17,321.813c0.15,0.041,0.301,0.081,0.451,0.122
		c0.586-0.633,1.216-1.232,1.753-1.905c5.13-6.433,10.248-12.876,15.362-19.321c5.611-7.072,11.191-14.17,16.845-21.208
		c1.015-1.264,1.42-2.54,1.417-4.148c-0.039-22.77-0.026-45.539-0.026-68.309c0-18.695-0.037-37.39,0.025-56.085
		c0.016-4.933,0.141-9.884,1.445-14.708c0.14-0.518,0.102-1.083,0.174-1.963c-9.512,0.591-18.866,1.068-28.387,1.816
		c0.094,1.407,0.065,2.526,0.257,3.605c0.914,5.145,0.856,10.334,0.825,15.526c-0.03,5.033-0.039,10.066-0.042,15.099
		c-0.006,12.064,0.005,24.128-0.007,36.192c-0.003,3.395-1.487,4.437-4.74,3.419c-5.634-1.763-11.284-3.476-16.905-5.277
		c-9.349-2.996-18.682-6.042-28.02-9.073c-2.809-0.912-5.613-1.841-8.417-2.771c-4.036-1.339-6.477-3.957-6.701-8.355
		c-0.073-1.435-0.258-2.868-0.256-4.301c0.012-13.901,0.012-27.801,0.114-41.701c0.026-3.589,0.286-7.186,0.64-10.759
		c0.486-4.908,2.613-6.19,7.34-4.661c15.339,4.963,30.677,9.929,46.02,14.879c1.043,0.336,2.124,0.555,3.342,0.868
		c0-1.589,0-2.963,0-4.494c-2.555-0.801-4.986-1.547-7.408-2.323c-8.741-2.801-17.484-5.598-26.213-8.44
		c-1.05-0.342-2.063-0.87-3.007-1.451c-1.368-0.842-2.054-2.459-1.501-3.894c0.354-0.918,1.015-1.835,1.779-2.458
		c2.661-2.17,5.44-4.196,8.151-6.307c3.277-2.552,6.608-5.043,9.77-7.732c2.561-2.178,2.471-5.04-0.082-7.18
		c-1.465-1.228-3.029-2.36-4.645-3.385c-8.852-5.617-17.225-11.868-25.139-18.74c-0.5-0.435-1.103-0.752-2.093-1.416
		c0,1.441-0.07,2.371,0.014,3.287c0.216,2.378,0.591,4.745,0.738,7.127c0.469,7.564,0.971,15.13,1.233,22.703
		c0.104,3.006-0.215,6.059-0.667,9.041c-0.34,2.244-2.173,3.43-4.417,3.036c-1.288-0.226-2.665-0.749-3.687-1.543
		c-3.143-2.441-6.137-5.073-9.177-7.646c-0.3-0.254-0.511-0.61-0.767-0.916c-4.36-5.202-8.716-10.407-13.09-15.597
		c-0.325-0.386-0.78-0.662-1.601-1.343c-0.054,1.401-0.12,2.317-0.12,3.234c-0.006,24.687-0.004,49.374-0.005,74.061
		c0,3.835,0.015,7.67-0.006,11.505c-0.015,2.757-1.407,3.794-3.97,2.983c-5.402-1.709-10.798-3.435-16.202-5.14
		c-0.964-0.304-1.949-0.538-3.033-0.834c-0.129,0.63-0.251,1.004-0.275,1.383c-0.202,3.145-0.139,3.158,2.906,4.116
		c4.719,1.485,9.424,3.014,14.114,4.586c1.202,0.403,2.37,0.961,3.474,1.588c1.951,1.108,2.88,2.727,2.896,5.102
		c0.042,6.23-0.325,12.447-0.408,18.665c-0.097,7.291-0.857,14.488-1.603,21.713c-0.704,6.828-1.124,13.687-3.341,20.261
		c-0.203,0.604-0.367,1.226-0.486,1.852c-1.089,5.729-2.885,11.267-4.751,16.767c-2.053,6.052-4.589,11.917-8.09,17.315
		c-0.453,0.699-0.777,1.482-1.154,2.212c1.283,0.814,2.318,0.415,3.202-0.045c2.189-1.14,4.386-2.3,6.432-3.672
		c8.476-5.686,15.518-12.74,20.521-21.727c3.125-5.613,5.469-11.547,7.201-17.702c3.431-12.195,4.96-24.71,5.911-37.307
		c0.21-2.78,0.339-5.566,0.575-8.343c0.066-0.779,0.285-1.578,0.6-2.296c1.025-2.338,2.536-3.124,4.987-2.41
		c3.598,1.049,7.156,2.24,10.723,3.393c13.899,4.492,27.801,8.976,41.686,13.513c1.505,0.492,2.957,1.211,4.344,1.985
		c2.038,1.136,3.023,3.015,3.231,5.3c0.072,0.793,0.037,1.597,0.037,2.395c0.002,15.739-0.002,31.478,0.003,47.217
		c0.001,5.192,0.115,10.387-0.013,15.576c-0.049,1.967-0.427,3.985-1.021,5.864c-0.931,2.948-3.214,4.315-6.293,3.985
		c-1.418-0.152-2.873-0.408-4.198-0.914c-5.59-2.136-11.25-4.115-16.511-7.035c-1.884-1.045-3.838-1.966-5.776-2.911
		c-0.455-0.222-0.975-0.31-1.465-0.46c0.364,1.131,0.917,1.99,1.589,2.744c1.161,1.304,2.443,2.502,3.593,3.815
		c4.615,5.269,9.148,10.61,13.817,15.83c2.058,2.301,3.584,4.891,4.857,7.646C715.844,317.086,716.886,319.276,716.17,321.813z
		 M264.6,328.236c0.157,0.03,0.313,0.059,0.47,0.089c3.285-3.998,6.622-7.955,9.846-12.003c6.867-8.623,13.609-17.347,20.561-25.901
		c1.422-1.75,2.013-3.405,2.011-5.608c-0.047-46.252-0.045-92.504-0.019-138.756c0.002-4.23,0.164-8.464,0.384-12.689
		c0.173-3.326,0.551-6.642,0.847-10.064c-0.421-0.08-0.804-0.232-1.179-0.214c-5.587,0.276-11.179,0.477-16.755,0.898
		c-4.496,0.34-8.848,0.332-13.199-1.29c-6.129-2.286-12.365-4.308-18.624-6.219c-3.583-1.094-6.394-3.177-8.938-5.758
		c-1.121-1.137-2.153-2.362-3.225-3.547c-5.413-5.986-10.819-11.978-16.251-17.946c-0.532-0.584-0.91-1.512-2.096-1.399
		c-0.033,0.719-0.083,1.341-0.086,1.964c-0.098,19.889-0.196,39.777-0.284,59.666c-0.073,16.294-0.126,32.589-0.206,48.883
		c-0.015,2.955,0.031,5.921-0.207,8.861c-0.89,10.981-1.791,21.965-3.971,32.791c-0.645,3.206-1.511,6.371-2.049,9.593
		c-1.395,8.353-3.191,16.604-5.631,24.719c-3.803,12.647-9.024,24.565-17.546,34.834c-0.378,0.456-0.583,1.055-0.974,1.783
		c2.213,0.136,3.815-0.79,5.411-1.614c10.188-5.262,19.178-12.074,26.415-21.009c2.605-3.216,5.029-6.631,7.118-10.199
		c4.706-8.04,7.949-16.71,10.164-25.748c0.892-3.64,1.54-7.339,2.337-11.002c0.765-3.516,3.097-5.179,6.611-4.579
		c1.638,0.28,3.231,0.848,4.827,1.343c6.169,1.914,12.343,3.814,18.49,5.798c2.116,0.683,3.548,2.07,3.684,4.486
		c0.072,1.27,0.391,2.532,0.394,3.798c0.029,14.459,0.031,28.917,0.004,43.376c-0.004,1.993-0.094,4-0.345,5.975
		c-0.476,3.745-3.563,5.86-7.215,5c-1.627-0.383-3.247-0.846-4.815-1.423c-5.993-2.204-11.961-4.473-17.943-6.706
		c-0.789-0.295-1.605-0.518-2.887-0.928c0.513,0.803,0.665,1.187,0.937,1.444c3.769,3.563,7.533,7.133,11.343,10.653
		c3.044,2.812,6.178,5.526,9.204,8.357c0.739,0.691,1.328,1.609,1.782,2.523C264.197,322.89,265.327,325.359,264.6,328.236z
		 M288.064,412.643c115.743,0,231.361,0,346.961,0c0.47-4.621,0.277-25.909-0.229-27.575c-6.231-0.483-344.826-0.24-346.732,0.264
		C288.064,394.39,288.064,403.464,288.064,412.643z M138.218,66.456c-0.216,0.092-0.433,0.183-0.649,0.275c0,4.302,0,8.603,0,12.905
		c0,4.313,0,8.626,0,12.94s0,8.626,0,12.94c0,4.393,0,8.786,0,13.179c0,4.313,0,8.626,0,12.94c0,4.313,0,8.626,0,12.94
		c0,4.313,0,8.626,0,12.94c0,4.313,0,8.626,0,12.94s0,8.626,0,12.94c0,4.393,0,8.786,0,13.179c0,4.313,0.035,8.627-0.01,12.94
		c-0.045,4.27,0.209,8.554-0.206,13.14c-25.644-8.31-50.943-16.508-76.155-24.679c-0.36,0.472-0.62,0.654-0.625,0.843
		c-0.055,2.072-0.117,4.146-0.077,6.217c0.021,1.069,0.703,1.675,1.738,2.008c4.101,1.324,8.174,2.733,12.278,4.048
		c13.299,4.259,26.62,8.446,39.906,12.744c14.194,4.591,28.357,9.277,42.535,13.919c2.044,0.669,4.093,1.323,6.141,1.981
		c7.82,2.514,15.643,5.02,23.46,7.543c4.253,1.372,8.493,2.783,12.747,4.152c0.942,0.303,1.918,0.505,3.09,0.809
		c0-51.832,0-103.294,0-154.849c-0.65,0-1.05-0.04-1.439,0.006c-4.598,0.547-9.203,1.038-13.787,1.683
		c-4.553,0.64-9.034,1.141-13.231-1.465c-0.765-0.475-1.752-0.592-2.875-0.95c0,1.466,0,2.623,0,3.908
		c1.126,0.532,2.245,1.153,3.43,1.602c2.886,1.094,4.2,3.029,4.18,6.208c-0.112,17.731-0.103,35.463-0.148,53.194
		c-0.002,0.954-0.036,1.926-0.212,2.86c-0.464,2.471-1.134,2.886-3.645,2.39c-0.467-0.092-0.916-0.274-1.373-0.417
		c-1.752-0.547-3.496-1.122-5.257-1.638c-3.656-1.071-5.731-3.589-6.51-7.205c-0.266-1.233-0.292-2.535-0.295-3.806
		c-0.032-15.975-0.003-31.95-0.081-47.924c-0.017-3.397,0.065-6.697,1.96-9.676c0.163-0.256,0.194-0.597,0.333-1.048
		C155.051,85.58,146.634,76.018,138.218,66.456z M507.177,184.934c0.119,2.116,0.351,4.094,0.315,6.068
		c-0.06,3.272-0.231,6.546-0.463,9.811c-0.841,11.861-0.606,23.79-2.345,35.594c-0.895,6.078-1.406,12.227-2.586,18.247
		c-1.442,7.351-3.161,14.668-5.201,21.875c-2.74,9.677-6.332,19.086-10.234,28.355c-2.165,5.143-4.54,10.212-7.099,15.171
		c-3.521,6.825-7.715,13.215-13.275,18.623c-1.146,1.114-2.061,2.465-3.315,3.989c3.066,0.379,5.342-0.532,7.539-1.663
		c3.336-1.717,6.615-3.545,9.953-5.258c7.093-3.641,13.398-8.403,19.147-13.849c4.931-4.671,9.129-10.007,12.747-15.781
		c4.513-7.203,8.09-14.834,10.938-22.843c3.812-10.718,6.359-21.731,8.205-32.932c0.388-2.352,0.827-4.736,1.626-6.968
		c0.916-2.555,2.829-3.177,5.417-2.335c9.714,3.161,19.438,6.293,29.164,9.421c0.493,0.159,1.033,0.174,1.662,0.274
		c0-1.671,0-3.166,0-4.747c-0.808-0.294-1.54-0.596-2.293-0.829c-6.557-2.03-13.123-4.027-19.673-6.078
		c-2.512-0.787-5.047-1.55-7.467-2.572c-3.054-1.289-5.611-3.143-5.626-6.963c-0.005-1.105-0.089-2.214-0.021-3.313
		c0.202-3.264,0.465-6.524,0.698-9.786c0.068-0.955,0.108-1.911,0.175-2.866c0.257-3.661,0.546-7.32,0.768-10.983
		c0.121-1.992,0.156-3.99,0.188-5.986c0.053-3.316,2.534-6.203,6.876-4.702c7.993,2.763,16.098,5.205,24.155,7.786
		c17.405,5.577,34.805,11.17,52.217,16.723c2.377,0.758,4.808,0.839,7.198,0.06c0.218-1.46-0.658-2.16-1.542-2.873
		c-6.654-5.363-13.299-10.735-19.959-16.09c-0.524-0.421-1.14-0.728-1.794-1.139c-2.066,2.934-3.978,5.651-5.915,8.402
		c-2.096-0.717-3.963-1.396-5.855-1.996c-5.172-1.639-10.36-3.226-15.531-4.867c-7.454-2.365-14.9-4.757-22.347-7.143
		c-2.052-0.657-4.133-1.244-6.139-2.02c-2.316-0.896-2.82-2.919-1.267-4.767c0.559-0.665,1.232-1.247,1.907-1.8
		c2.626-2.151,4.858-4.538,6.071-7.839c2.881-7.839,2.047-15.221-2.448-22.197c-2.878-4.467-6.501-8.3-10.652-11.593
		c-4.694-3.722-9.481-7.329-14.829-10.106c-0.631-0.327-1.159-0.846-1.756-1.244c-2.03-1.357-4.069-2.7-6.431-4.265
		c0.095,0.938,0.075,1.415,0.197,1.853c2.429,8.682,4.98,17.331,7.284,26.045c2.038,7.707,3.814,15.483,5.673,23.237
		c0.203,0.845,0.269,1.742,0.265,2.614c-0.007,1.685-0.73,2.526-2.371,2.725c-0.863,0.105-1.787,0.167-2.618-0.029
		c-1.855-0.438-3.678-1.024-5.5-1.593c-18.817-5.878-37.63-11.767-56.45-17.632c-0.55-0.171-1.173-0.11-1.954-0.172
		c0,2.491-0.014,4.714,0.006,6.937c0.011,1.204,0.696,1.795,1.829,2.154c7.075,2.238,14.131,4.535,21.198,6.798
		c2.582,0.827,5.187,1.581,7.762,2.43C497.939,181.803,502.463,183.347,507.177,184.934z M558.051,368.204
		c0.403-0.486,0.693-0.824,0.972-1.172c5.997-7.471,12.008-14.93,17.986-22.416c7.971-9.982,15.93-19.973,23.842-30.001
		c0.605-0.767,1.032-1.834,1.139-2.805c0.39-3.562,0.728-7.138,0.87-10.718c0.441-11.166,0.705-22.34,1.202-33.503
		c0.206-4.611,0.788-9.209,1.281-13.803c0.254-2.364,0.688-4.708,1.096-7.425c-9.941,0.372-19.624,0.902-29.426,1.462
		c-0.084,1.255-0.209,2.283-0.214,3.311c-0.053,10.937-0.394,21.861-1.242,32.769c-0.631,8.108-1.054,16.232-1.686,24.34
		c-0.421,5.404-0.953,10.804-1.613,16.183c-0.436,3.553-1.128,7.08-1.834,10.593c-0.231,1.147-0.747,2.282-1.339,3.304
		c-2.029,3.501-5.038,4.771-8.93,3.717c-1.762-0.477-3.509-1.109-5.157-1.894c-6.768-3.224-13.495-6.536-20.24-9.81
		c-1.086-0.527-2.136-1.18-3.87-1.283c0.89,1.154,1.467,1.998,2.141,2.757c2.065,2.327,4.18,4.609,6.253,6.929
		c3.546,3.969,7.16,7.881,10.588,11.95C554.087,355.697,557.891,360.959,558.051,368.204z M672.897,210.233
		c-0.136,0.145-0.272,0.291-0.409,0.436c0.805,2.24,1.718,4.448,2.398,6.725c3.054,10.23,6.045,20.479,9.051,30.724
		c1.235,4.207,2.433,8.426,3.685,12.628c0.364,1.22,0.788,2.432,1.302,3.595c1.214,2.749,4.35,4.818,7.305,4.434
		c4.132-0.537,7.866-1.957,10.289-5.748c4.225-6.61,4.615-13.63,2.288-20.899c-2.537-7.925-8.158-13.526-14.377-18.672
		c-4.209-3.483-8.956-6.119-13.594-8.923C678.263,212.978,675.548,211.659,672.897,210.233z M672.054,133.957
		c0.246,0.915,0.306,1.279,0.44,1.614c3.103,7.706,5.282,15.709,7.622,23.66c1.912,6.496,3.837,12.988,5.75,19.484
		c0.809,2.747,1.469,5.545,2.431,8.237c1.304,3.648,4.113,5.251,7.905,4.529c5.676-1.081,9.763-4.279,11.747-9.758
		c1.676-4.629,1.597-9.407,0.368-14.142c-2.144-8.258-7.552-14.258-13.852-19.573c-4.586-3.869-9.624-7.098-14.902-9.951
		C677.212,136.787,674.872,135.497,672.054,133.957z"/>
	<path d="M325.755,49.89c5.634,6.732,11.153,13.565,16.944,20.159c3.68,4.191,7.757,8.064,12.819,10.62
		c2.125,1.073,4.401,1.888,6.672,2.626c6.905,2.244,13.845,4.378,20.762,6.586c4.03,1.287,8.039,2.636,12.059,3.954
		c9.099,2.984,18.193,5.982,27.305,8.923c0.954,0.308,2.039,0.46,3.03,0.36c3.886-0.392,7.749-1.054,11.64-1.352
		c5.098-0.39,10.215-0.535,15.324-0.768c0.535-0.024,1.076,0.067,1.695,0.11c0.053,0.418,0.164,0.728,0.12,1.015
		c-1.737,11.253-1.791,22.593-1.768,33.937c0.061,30.194,0.124,60.387,0.182,90.581c0.011,5.751-0.063,11.504,0.039,17.254
		c0.033,1.881-0.501,3.37-1.672,4.799c-3.343,4.077-6.622,8.207-9.905,12.332c-6.318,7.938-12.62,15.889-18.936,23.829
		c-0.826,1.038-1.695,2.042-2.773,3.005c0.574-2.924-0.755-5.272-1.756-7.739c-0.793-1.954-2.094-3.038-4.078-3.667
		c-9.737-3.089-19.446-6.263-29.165-9.408c-0.456-0.147-0.9-0.349-1.367-0.439c-1.071-0.206-1.402-0.868-1.387-1.89
		c0.034-2.31,0.011-4.622,0.011-7.247c0.75,0.181,1.401,0.294,2.023,0.496c12.606,4.077,25.208,8.167,37.814,12.244
		c0.969,0.313,1.963,0.55,3.333,0.931c0-1.083,0.002-1.853,0-2.623c-0.061-23.004-0.122-46.009-0.186-69.013
		c-0.002-0.559,0.01-1.122-0.051-1.676c-0.213-1.942-0.935-3.517-2.964-4.223c-4.894-1.703-9.743-3.543-14.668-5.15
		c-14.568-4.752-29.163-9.42-43.75-14.113c-1.666-0.536-3.321-1.16-5.031-1.493c-2.845-0.554-5.013,1.05-5.51,3.922
		c-0.163,0.94-0.26,1.905-0.259,2.859c0.017,24.602,0.051,49.204,0.081,73.807c0.007,5.673,1.688,8.088,7.093,9.922
		c4.156,1.41,8.349,2.711,12.524,4.064c0.526,0.171,1.046,0.364,1.658,0.578c0.111,1.353,0.22,2.674,0.346,4.213
		c-0.668-0.065-1.203-0.04-1.694-0.176c-5.384-1.487-10.774-2.955-16.132-4.53c-1.619-0.476-2.987-0.293-4.248,0.765
		c-1.834,1.538-3.638,3.112-5.472,4.65c-4.712,3.952-9.442,7.883-14.146,11.845c-1.4,1.179-2.726,2.447-4.113,3.642
		c-0.764,0.658-1.587,1.249-2.669,2.093c-0.157-0.924-0.287-1.427-0.317-1.935c-0.043-0.716-0.012-1.437-0.012-2.156
		c0-77.644,0-155.288,0.003-232.932c0-1.197,0.049-2.394,0.076-3.591C325.435,49.89,325.595,49.89,325.755,49.89z M424.8,149.129
		c-0.028,0-0.055,0-0.083,0c0-6.87,0.006-13.74-0.002-20.61c-0.006-5.112,0.082-10.228-0.074-15.336
		c-0.153-5.01-0.991-6.013-5.728-7.557c-19.122-6.23-38.248-12.447-57.388-18.621c-1.424-0.459-2.963-0.711-4.459-0.769
		c-2.706-0.106-4.14,1.222-4.431,3.948c-0.17,1.585-0.237,3.187-0.245,4.782c-0.095,19.73-0.188,39.459-0.229,59.189
		c-0.005,2.467,0.219,4.942,0.465,7.401c0.207,2.062,0.989,3.885,2.976,4.892c1.626,0.824,3.226,1.757,4.941,2.336
		c6.881,2.322,13.791,4.562,20.712,6.764c13.307,4.235,26.628,8.424,39.943,12.632c2.148,0.679,3.226,0.026,3.514-2.151
		c0.063-0.473,0.085-0.955,0.085-1.433C424.801,172.773,424.8,160.951,424.8,149.129z"/>
	<path d="M833.76,220.066c-1.083-0.222-2.196-0.346-3.243-0.68c-13.373-4.273-26.739-8.567-40.102-12.874
		c-9.186-2.96-18.363-5.946-27.543-8.927c-1.059-0.344-2.106-0.728-3.314-1.148c0-2.785,0-5.543,0-8.449
		c0.572,0.108,1.117,0.152,1.624,0.315c19.505,6.313,39.006,12.64,58.511,18.955c3.868,1.252,7.754,2.451,11.624,3.698
		c0.831,0.268,1.629,0.637,2.443,0.96C833.76,214.633,833.76,217.35,833.76,220.066z"/>
	<path d="M716.17,321.813c0.715-2.538-0.326-4.727-1.321-6.881c-1.273-2.755-2.799-5.346-4.857-7.646
		c-4.669-5.22-9.202-10.561-13.817-15.83c-1.15-1.313-2.431-2.511-3.593-3.815c-0.672-0.754-1.225-1.614-1.589-2.744
		c0.49,0.15,1.01,0.238,1.465,0.46c1.938,0.945,3.892,1.865,5.776,2.911c5.261,2.92,10.921,4.899,16.511,7.035
		c1.325,0.506,2.78,0.762,4.198,0.914c3.079,0.331,5.361-1.037,6.293-3.985c0.594-1.879,0.972-3.898,1.021-5.864
		c0.128-5.189,0.014-10.384,0.013-15.576c-0.005-15.739-0.001-31.478-0.003-47.217c0-0.799,0.035-1.602-0.037-2.395
		c-0.208-2.285-1.193-4.164-3.231-5.3c-1.388-0.773-2.839-1.493-4.344-1.985c-13.885-4.536-27.786-9.021-41.686-13.513
		c-3.567-1.153-7.125-2.344-10.723-3.393c-2.451-0.715-3.963,0.072-4.987,2.41c-0.315,0.718-0.534,1.517-0.6,2.296
		c-0.236,2.777-0.365,5.563-0.575,8.343c-0.951,12.597-2.48,25.111-5.911,37.307c-1.731,6.155-4.076,12.089-7.201,17.702
		c-5.003,8.987-12.045,16.041-20.521,21.727c-2.046,1.372-4.243,2.532-6.432,3.672c-0.884,0.46-1.918,0.859-3.202,0.045
		c0.377-0.731,0.7-1.513,1.154-2.212c3.502-5.398,6.038-11.263,8.09-17.315c1.865-5.499,3.661-11.038,4.751-16.767
		c0.119-0.626,0.283-1.248,0.486-1.852c2.216-6.574,2.636-13.433,3.341-20.261c0.745-7.225,1.506-14.422,1.603-21.713
		c0.082-6.217,0.449-12.435,0.408-18.665c-0.016-2.376-0.945-3.994-2.896-5.102c-1.104-0.627-2.272-1.185-3.474-1.588
		c-4.69-1.573-9.395-3.101-14.114-4.586c-3.045-0.958-3.108-0.972-2.906-4.116c0.024-0.38,0.146-0.753,0.275-1.383
		c1.084,0.296,2.07,0.53,3.033,0.834c5.403,1.705,10.8,3.431,16.202,5.14c2.563,0.811,3.955-0.226,3.97-2.983
		c0.021-3.835,0.006-7.67,0.006-11.505c0-24.687-0.001-49.374,0.005-74.061c0-0.916,0.066-1.833,0.12-3.234
		c0.821,0.681,1.276,0.958,1.601,1.343c4.374,5.19,8.73,10.395,13.09,15.597c0.256,0.306,0.468,0.663,0.767,0.916
		c3.04,2.573,6.034,5.204,9.177,7.646c1.022,0.794,2.399,1.316,3.687,1.543c2.244,0.394,4.077-0.791,4.417-3.036
		c0.452-2.982,0.771-6.035,0.667-9.041c-0.262-7.573-0.764-15.138-1.233-22.703c-0.148-2.382-0.522-4.748-0.738-7.127
		c-0.083-0.916-0.014-1.846-0.014-3.287c0.99,0.664,1.593,0.982,2.093,1.416c7.914,6.872,16.287,13.123,25.139,18.74
		c1.615,1.025,3.179,2.157,4.645,3.385c2.553,2.14,2.643,5.002,0.082,7.18c-3.161,2.689-6.493,5.18-9.77,7.732
		c-2.711,2.111-5.489,4.137-8.151,6.307c-0.764,0.623-1.425,1.54-1.779,2.458c-0.553,1.435,0.133,3.052,1.501,3.894
		c0.944,0.581,1.957,1.109,3.007,1.451c8.728,2.842,17.471,5.638,26.213,8.44c2.422,0.776,4.853,1.523,7.408,2.323
		c0,1.531,0,2.905,0,4.494c-1.219-0.313-2.3-0.532-3.342-0.868c-15.343-4.95-30.681-9.916-46.02-14.879
		c-4.727-1.53-6.854-0.247-7.34,4.661c-0.354,3.573-0.614,7.17-0.64,10.759c-0.102,13.9-0.102,27.801-0.114,41.701
		c-0.001,1.434,0.183,2.867,0.256,4.301c0.224,4.399,2.666,7.016,6.701,8.355c2.803,0.93,5.607,1.859,8.417,2.771
		c9.338,3.032,18.671,6.078,28.02,9.073c5.622,1.801,11.272,3.514,16.905,5.277c3.253,1.018,4.736-0.024,4.74-3.419
		c0.012-12.064,0.001-24.128,0.007-36.192c0.002-5.033,0.012-10.066,0.042-15.099c0.031-5.192,0.089-10.381-0.825-15.526
		c-0.192-1.079-0.164-2.198-0.257-3.605c9.52-0.748,18.875-1.225,28.387-1.816c-0.072,0.879-0.034,1.445-0.174,1.963
		c-1.304,4.824-1.429,9.774-1.445,14.708c-0.062,18.695-0.025,37.39-0.025,56.085c0,22.77-0.012,45.539,0.026,68.309
		c0.003,1.608-0.402,2.885-1.417,4.148c-5.654,7.038-11.233,14.135-16.845,21.208c-5.114,6.445-10.232,12.888-15.362,19.321
		c-0.537,0.673-1.166,1.272-1.753,1.905C716.471,321.894,716.321,321.854,716.17,321.813z"/>
	<path d="M264.6,328.236c0.728-2.877-0.403-5.346-1.605-7.768c-0.454-0.915-1.043-1.832-1.782-2.523
		c-3.026-2.83-6.161-5.545-9.204-8.357c-3.81-3.52-7.574-7.089-11.343-10.653c-0.272-0.257-0.424-0.641-0.937-1.444
		c1.282,0.409,2.098,0.633,2.887,0.928c5.982,2.233,11.951,4.502,17.943,6.706c1.568,0.577,3.188,1.04,4.815,1.423
		c3.652,0.86,6.739-1.255,7.215-5c0.251-1.975,0.341-3.982,0.345-5.975c0.028-14.459,0.025-28.917-0.004-43.376
		c-0.003-1.266-0.322-2.529-0.394-3.798c-0.136-2.416-1.568-3.803-3.684-4.486c-6.147-1.984-12.321-3.885-18.49-5.798
		c-1.596-0.495-3.189-1.064-4.827-1.343c-3.514-0.601-5.847,1.063-6.611,4.579c-0.797,3.664-1.444,7.363-2.337,11.002
		c-2.216,9.038-5.459,17.708-10.164,25.748c-2.089,3.569-4.513,6.984-7.118,10.199c-7.237,8.935-16.227,15.748-26.415,21.009
		c-1.596,0.824-3.198,1.751-5.411,1.614c0.39-0.728,0.595-1.327,0.974-1.783c8.522-10.269,13.743-22.187,17.546-34.834
		c2.44-8.115,4.236-16.366,5.631-24.719c0.538-3.222,1.404-6.388,2.049-9.593c2.18-10.825,3.081-21.81,3.971-32.791
		c0.238-2.94,0.192-5.906,0.207-8.861c0.08-16.294,0.133-32.589,0.206-48.883c0.089-19.889,0.186-39.777,0.284-59.666
		c0.003-0.623,0.053-1.246,0.086-1.964c1.185-0.112,1.564,0.815,2.096,1.399c5.432,5.969,10.838,11.961,16.251,17.946
		c1.072,1.185,2.104,2.41,3.225,3.547c2.544,2.581,5.355,4.664,8.938,5.758c6.259,1.911,12.494,3.933,18.624,6.219
		c4.351,1.623,8.703,1.63,13.199,1.29c5.576-0.421,11.169-0.622,16.755-0.898c0.375-0.019,0.759,0.133,1.179,0.214
		c-0.296,3.422-0.673,6.738-0.847,10.064c-0.22,4.225-0.382,8.459-0.384,12.689c-0.026,46.252-0.028,92.504,0.019,138.756
		c0.002,2.203-0.589,3.858-2.011,5.608c-6.951,8.554-13.694,17.277-20.561,25.901c-3.223,4.048-6.56,8.005-9.846,12.003
		C264.913,328.295,264.756,328.266,264.6,328.236z M272.949,214.402c0-4.552,0-9.104,0-13.656c0-2.955,0.061-5.911-0.019-8.864
		c-0.104-3.831-1.768-6.095-4.936-7.083c-4.948-1.543-9.862-3.201-14.834-4.66c-1.731-0.508-3.586-0.634-5.397-0.818
		c-1.728-0.175-2.94,0.735-3.572,2.267c-0.386,0.936-0.627,1.982-0.688,2.994c-0.292,4.861-0.495,9.727-0.74,14.591
		c-0.274,5.421-0.555,10.842-0.843,16.263c-0.161,3.029-0.323,6.059-0.516,9.086c-0.218,3.419,1.199,5.853,4.307,7.301
		c0.506,0.236,0.997,0.514,1.522,0.694c7.245,2.482,14.487,4.972,21.748,7.409c2.431,0.816,3.643-0.006,3.93-2.526
		c0.072-0.632,0.037-1.276,0.037-1.915C272.95,228.457,272.949,221.43,272.949,214.402z M272.949,155.832c0-3.834,0-7.667,0-11.501
		c0-3.754-0.008-7.508,0.002-11.262c0.004-1.748-0.38-3.423-1.818-4.474c-1.34-0.979-2.837-1.854-4.396-2.402
		c-4.214-1.481-8.475-2.838-12.764-4.087c-1.664-0.485-3.447-0.733-5.181-0.761c-3.004-0.049-4.797,1.647-5.017,4.652
		c-0.279,3.815-0.548,7.639-0.581,11.461c-0.074,8.625-0.027,17.251,0.037,25.877c0.012,1.664,0.264,3.336,0.52,4.986
		c0.385,2.479,1.882,4.243,4.062,5.303c2.353,1.144,4.779,2.169,7.246,3.039c4.665,1.646,9.374,3.168,14.08,4.693
		c2.638,0.855,3.709,0.045,3.807-2.763c0.019-0.558,0.005-1.118,0.005-1.677C272.949,169.889,272.949,162.861,272.949,155.832z"/>
	<path d="M288.064,412.643c0-9.179,0-18.253,0-27.312c1.906-0.504,340.501-0.747,346.732-0.264
		c0.507,1.666,0.699,22.954,0.229,27.575C519.425,412.643,403.807,412.643,288.064,412.643z M490.931,397.825
		c0-2.155,0-4.041,0-5.85c0.699-0.357,1.249-0.638,1.798-0.919c-2.033-0.303-3.945-0.311-5.856-0.288
		c-0.153,0.002-0.303,0.216-0.57,0.42c0.748,0.262,1.332,0.466,2.168,0.759c0,3.875,0.014,7.776-0.012,11.678
		c-0.005,0.787,0.047,1.692-0.314,2.321c-0.28,0.489-1.162,0.632-1.777,0.929c2.203,0.394,4.315,0.622,6.335,0.254
		c-0.713-0.689-1.708-1.193-1.764-1.786c-0.199-2.097-0.078-4.225-0.078-6.339c3.315,0,6.321,0,9.537,0
		c0,1.687,0.024,3.261-0.011,4.833c-0.015,0.708,0.063,1.553-0.287,2.08c-0.328,0.495-1.164,0.653-1.777,0.959
		c2.246,0.419,4.405,0.634,6.883,0.133c-2.411-0.825-2.418-0.825-2.449-3.199c-0.017-1.277-0.006-2.554-0.006-3.831
		c-0.001-2.701,0-5.402,0-8.027c0.867-0.328,1.482-0.561,2.097-0.794c-2.202-0.405-4.31-0.497-6.431,0.06
		c0.571,0.215,1.142,0.43,1.858,0.699c0,1.952,0,3.895,0,5.906C497.104,397.825,494.097,397.825,490.931,397.825z M445.166,407.117
		c-1.845-0.502-1.979-1.836-1.908-3.324c0.038-0.795-0.01-1.595-0.011-2.392c-0.003-2.353-0.001-4.706-0.001-7.059
		c0.162-0.055,0.324-0.11,0.485-0.165c0.593,0.7,1.197,1.392,1.778,2.102c2.629,3.209,5.246,6.427,7.879,9.631
		c0.817,0.994,1.703,1.879,3.32,1.306c0-5.124,0-10.21,0-15.212c0.686-0.376,1.223-0.671,1.964-1.078c-2.008,0-3.682,0-5.356,0
		c-0.018,0.113-0.035,0.227-0.053,0.34c0.617,0.247,1.234,0.494,1.95,0.782c0,3.992,0,7.92,0,12.328
		c-0.869-0.954-1.467-1.548-1.995-2.199c-2.713-3.346-5.387-6.722-8.127-10.045c-0.469-0.569-1.135-1.179-1.809-1.33
		c-1.001-0.225-2.09-0.058-3.674-0.058c2.377,1.36,2.411,1.36,2.426,3.594c0.022,3.27,0.005,6.54-0.03,9.809
		c-0.007,0.628,0.009,1.377-0.313,1.845c-0.311,0.451-1.046,0.61-2.031,1.126C441.833,407.117,443.499,407.117,445.166,407.117z
		 M415.129,399.159c0.947-0.48,1.756-0.81,2.479-1.274c1.55-0.994,2.311-2.749,1.958-4.306c-0.357-1.568-1.514-2.498-3.499-2.774
		c-0.472-0.066-0.956-0.067-1.435-0.069c-2.237-0.007-4.474-0.013-6.711,0.006c-0.401,0.003-0.8,0.121-1.2,0.187
		c1.62,0.486,2.008,1.503,1.981,2.97c-0.064,3.432-0.089,6.867,0.007,10.297c0.044,1.564-0.513,2.449-2.156,2.73
		c2.26,0.483,4.385,0.469,6.514-0.131c-0.628-0.214-1.257-0.428-1.914-0.651c0-4.729,0-9.321,0-14.179
		c1.279-0.058,2.404-0.307,3.447-0.116c2.416,0.442,3.392,3.397,1.704,5.196c-0.604,0.644-1.609,0.948-2.477,1.293
		c-0.522,0.208-1.132,0.195-1.886,0.31c1.993,2.647,3.794,5.073,5.636,7.469c1.112,1.447,1.834,1.55,3.57,0.791
		C419.189,404.387,417.194,401.818,415.129,399.159z M438.482,391.084c-1.539-0.575-2.793-0.341-3.985-0.219
		c-1.911,2.908-5.816,6.645-7.418,7.131c0-1.981,0-3.963,0-6.015c0.662-0.282,1.265-0.538,1.869-0.795
		c-0.028-0.105-0.056-0.209-0.084-0.314c-1.986,0-3.973,0-5.959,0c-0.034,0.091-0.068,0.182-0.102,0.274
		c0.577,0.257,1.153,0.515,1.833,0.818c-0.035,4.851,0.245,9.604-0.152,14.264c-0.716,0.254-1.213,0.43-2.087,0.74
		c3.232,0.549,5.23,0.456,6.388-0.103c-0.516-0.345-1.597-0.699-1.649-1.168c-0.224-1.99-0.378-4.027,0.137-6.349
		c2.552,2.394,4.934,4.503,7.162,6.763c1.378,1.398,2.809,1.404,4.441,0.92c-3.229-2.978-6.374-5.88-9.515-8.778
		C432.679,394.478,435.711,392.058,438.482,391.084z M483.795,391.714c-3.22-1.271-6.304-1.468-9.418-0.927
		c-3.868,0.671-6.541,3.646-6.941,7.53c-0.371,3.601,1.481,6.91,4.801,8.321c3.939,1.674,7.76,0.839,11.373-0.419
		c0.216-2.166,0.398-3.988,0.586-5.876c-1.678,0.102-3.432-0.307-5.125,0.589c0.806,0.191,1.612,0.383,2.405,0.571
		c0,1.41,0,2.657,0,4.027c-1.035,0.238-1.95,0.512-2.886,0.652c-3.027,0.452-5.597-0.44-7.3-3.025
		c-1.759-2.669-1.829-5.583-0.428-8.437c0.772-1.574,2.149-2.703,3.887-2.918c1.715-0.212,3.498-0.148,5.22,0.061
		c1.583,0.192,2.825,1.023,2.86,2.899c0.001,0.03,0.261,0.055,0.592,0.119C483.54,393.875,483.658,392.879,483.795,391.714z
		 M396.798,390.544c-0.203,0.024-0.405,0.048-0.608,0.072c-0.304,0.621-0.627,1.232-0.908,1.863c-1.78,4-3.506,8.025-5.357,11.992
		c-0.452,0.968-1.306,1.747-2.067,2.731c1.621,0.072,3.266,0.368,5.177-0.316c-0.834-0.362-1.388-0.602-2.148-0.931
		c0.588-1.487,1.131-2.858,1.695-4.284c2.267,0,4.394,0,6.699,0c0.564,1.469,1.118,2.911,1.709,4.448
		c-0.801,0.277-1.356,0.469-1.91,0.66c2.009,0.68,3.961,0.573,5.803,0.415c-0.743-1.039-1.517-1.825-1.942-2.767
		c-1.768-3.918-3.426-7.885-5.138-11.828C397.501,391.899,397.135,391.228,396.798,390.544z M531.347,391.257
		c-1.512-0.263-2.817-0.591-4.139-0.694c-1.604-0.125-3.193,0.049-4.591,1.01c-1.716,1.18-2.52,3.204-2.05,5.246
		c0.45,1.954,1.919,2.628,3.687,2.881c1.106,0.158,2.234,0.176,3.33,0.379c1.847,0.342,2.569,1.073,2.698,2.536
		c0.134,1.518-0.599,2.793-2.068,3.444c-1.529,0.678-3.068,0.535-4.681,0.15c-1.662-0.397-1.76-1.817-2.639-2.969
		c-0.07,1.126-0.14,2.253-0.207,3.338c2.102,0.987,4.089,1.114,6.076,0.845c2.241-0.303,4.111-1.33,5.161-3.449
		c1.344-2.711,0.158-5.149-2.797-5.739c-1.483-0.296-3.022-0.353-4.478-0.737c-2.026-0.534-2.757-2.607-1.612-4.346
		c1.074-1.632,2.716-1.777,4.468-1.556c1.568,0.197,2.771,0.754,2.798,2.612c0.002,0.121,0.324,0.238,0.633,0.45
		C531.066,393.583,531.179,392.649,531.347,391.257z M511.761,391.858c0,4.194-0.018,8.25,0.01,12.307
		c0.01,1.492-0.43,2.56-2.204,2.749c2.237,0.486,4.357,0.544,6.955,0.077c-1.061-0.397-1.665-0.623-2.363-0.884
		c-0.204-4.827-0.299-9.561,0.032-14.258c1.601,0,2.855,0,4.077,0c0.338,0.855,0.618,1.563,0.898,2.271
		c0.122-0.038,0.245-0.076,0.367-0.113c0.081-1.01,0.163-2.02,0.251-3.117c-4.653,0-9.154,0-13.752,0
		c0.137,1.158-0.217,2.224,0.554,3.545c0.303-1.085,0.491-1.759,0.719-2.576C508.668,391.858,510,391.858,511.761,391.858z
		 M460.216,406.949c2.164,0.384,4.212,0.488,6.3-0.043c-1.304-0.276-2.116-0.738-2.086-2.216c0.083-4.136,0.07-8.274,0.107-12.411
		c0.001-0.138,0.138-0.275,0.241-0.468c0.503-0.195,1.048-0.406,1.592-0.617c-2.069-0.503-4.065-0.591-6.086,0.027
		c0.547,0.224,1.095,0.448,1.787,0.732c0,4.345-0.03,8.634,0.017,12.923C462.104,406.23,461.226,406.551,460.216,406.949z
		 M569.801,402.622c0.133-0.656,0.234-1.154,0.351-1.725c-2.175,0-4.154,0-6.211,0c-0.147,0.582-0.275,1.091-0.435,1.725
		C565.622,402.622,567.599,402.622,569.801,402.622z M356.552,400.806c-1.914,0-3.641-0.006-5.368,0.002
		c-1.218,0.006-1.328,0.801-1.308,1.827c2.067,0,4.039,0,6.095,0C356.144,402.091,356.305,401.584,356.552,400.806z"/>
	<path d="M138.218,66.456c8.417,9.562,16.834,19.125,25.222,28.655c-0.139,0.452-0.17,0.792-0.333,1.048
		c-1.895,2.98-1.977,6.279-1.96,9.676c0.079,15.974,0.05,31.949,0.081,47.924c0.003,1.271,0.029,2.572,0.295,3.806
		c0.779,3.616,2.853,6.134,6.51,7.205c1.761,0.516,3.505,1.09,5.257,1.638c0.457,0.143,0.906,0.325,1.373,0.417
		c2.511,0.496,3.181,0.08,3.645-2.39c0.176-0.934,0.209-1.905,0.212-2.86c0.046-17.731,0.037-35.463,0.148-53.194
		c0.02-3.18-1.294-5.114-4.18-6.208c-1.185-0.449-2.304-1.07-3.43-1.602c0-1.285,0-2.442,0-3.908c1.122,0.358,2.11,0.475,2.875,0.95
		c4.197,2.606,8.679,2.105,13.231,1.465c4.584-0.645,9.19-1.136,13.787-1.683c0.39-0.046,0.789-0.006,1.439-0.006
		c0,51.555,0,103.017,0,154.849c-1.172-0.303-2.148-0.505-3.09-0.809c-4.254-1.369-8.494-2.78-12.747-4.152
		c-7.817-2.523-15.64-5.029-23.46-7.543c-2.048-0.658-4.097-1.312-6.141-1.981c-14.178-4.642-28.341-9.328-42.535-13.919
		c-13.286-4.297-26.608-8.485-39.906-12.744c-4.104-1.314-8.177-2.724-12.278-4.048c-1.034-0.334-1.717-0.939-1.738-2.008
		c-0.04-2.071,0.022-4.145,0.077-6.217c0.005-0.189,0.265-0.371,0.625-0.843c25.212,8.17,50.511,16.369,76.155,24.679
		c0.415-4.586,0.161-8.87,0.206-13.14c0.045-4.313,0.01-8.626,0.01-12.94c0-4.393,0-8.786,0-13.179c0-4.313,0-8.626,0-12.94
		s0-8.626,0-12.94c0-4.313,0-8.626,0-12.94c0-4.313,0-8.626,0-12.94c0-4.313,0-8.626,0-12.94c0-4.393,0-8.786,0-13.179
		c0-4.313,0-8.626,0-12.94s0-8.626,0-12.94c0-4.302,0-8.603,0-12.905C137.785,66.639,138.001,66.547,138.218,66.456z
		 M178.628,204.247c0-8.469,0.151-16.941-0.049-25.405c-0.155-6.557-1.514-7.161-6.015-8.687c-0.076-0.026-0.147-0.064-0.223-0.088
		c-1.749-0.558-3.47-1.235-5.253-1.644c-2.952-0.678-4.988,0.748-5.464,3.733c-0.187,1.176-0.257,2.384-0.252,3.576
		c0.044,10.145,0.121,20.289,0.181,30.434c0.04,6.71,0.108,13.421,0.079,20.13c-0.009,2.048,0.588,3.718,2.515,4.483
		c3.62,1.437,7.312,2.691,10.977,4.014c0.145,0.052,0.317,0.026,0.476,0.041c1.287,0.122,2.243-0.376,2.541-1.653
		c0.268-1.151,0.462-2.349,0.467-3.528C178.648,221.184,178.63,212.716,178.628,204.247z"/>
	<path d="M507.177,184.934c-4.714-1.586-9.238-3.131-13.778-4.628c-2.574-0.849-5.18-1.603-7.762-2.43
		c-7.067-2.263-14.123-4.56-21.198-6.798c-1.133-0.358-1.818-0.95-1.829-2.154c-0.02-2.223-0.006-4.446-0.006-6.937
		c0.781,0.062,1.404,0.001,1.954,0.172c18.821,5.865,37.633,11.754,56.45,17.632c1.822,0.569,3.644,1.156,5.5,1.593
		c0.831,0.196,1.755,0.134,2.618,0.029c1.641-0.199,2.364-1.039,2.371-2.725c0.004-0.872-0.062-1.769-0.265-2.614
		c-1.859-7.753-3.636-15.53-5.673-23.237c-2.304-8.714-4.855-17.363-7.284-26.045c-0.122-0.438-0.102-0.915-0.197-1.853
		c2.362,1.565,4.401,2.908,6.431,4.265c0.597,0.399,1.125,0.917,1.756,1.244c5.348,2.777,10.135,6.384,14.829,10.106
		c4.152,3.292,7.774,7.125,10.652,11.593c4.494,6.976,5.329,14.358,2.448,22.197c-1.213,3.301-3.445,5.689-6.071,7.839
		c-0.675,0.553-1.348,1.135-1.907,1.8c-1.553,1.848-1.048,3.871,1.267,4.767c2.007,0.776,4.087,1.363,6.139,2.02
		c7.448,2.385,14.893,4.777,22.347,7.143c5.171,1.641,10.359,3.228,15.531,4.867c1.892,0.6,3.759,1.279,5.855,1.996
		c1.937-2.751,3.849-5.468,5.915-8.402c0.654,0.411,1.27,0.718,1.794,1.139c6.66,5.355,13.305,10.727,19.959,16.09
		c0.884,0.712,1.76,1.412,1.542,2.873c-2.39,0.779-4.821,0.698-7.198-0.06c-17.413-5.553-34.812-11.146-52.217-16.723
		c-8.056-2.581-16.161-5.023-24.155-7.786c-4.343-1.501-6.823,1.385-6.876,4.702c-0.032,1.996-0.067,3.994-0.188,5.986
		c-0.223,3.663-0.512,7.322-0.768,10.983c-0.067,0.955-0.107,1.911-0.175,2.866c-0.233,3.262-0.496,6.522-0.698,9.786
		c-0.068,1.1,0.016,2.209,0.021,3.313c0.016,3.82,2.572,5.673,5.626,6.963c2.42,1.022,4.955,1.785,7.467,2.572
		c6.55,2.051,13.116,4.049,19.673,6.078c0.753,0.233,1.485,0.535,2.293,0.829c0,1.582,0,3.076,0,4.747
		c-0.629-0.1-1.168-0.115-1.662-0.274c-9.725-3.128-19.449-6.26-29.164-9.421c-2.587-0.842-4.501-0.22-5.417,2.335
		c-0.8,2.232-1.239,4.616-1.626,6.968c-1.846,11.201-4.393,22.214-8.205,32.932c-2.848,8.009-6.425,15.64-10.938,22.843
		c-3.618,5.774-7.816,11.11-12.747,15.781c-5.749,5.446-12.054,10.208-19.147,13.849c-3.338,1.713-6.617,3.541-9.953,5.258
		c-2.197,1.131-4.473,2.042-7.539,1.663c1.253-1.524,2.169-2.875,3.315-3.989c5.56-5.408,9.753-11.798,13.275-18.623
		c2.559-4.959,4.934-10.028,7.099-15.171c3.902-9.269,7.494-18.677,10.234-28.355c2.041-7.207,3.76-14.524,5.201-21.875
		c1.181-6.02,1.691-12.168,2.586-18.247c1.739-11.804,1.504-23.734,2.345-35.594c0.231-3.265,0.403-6.539,0.463-9.811
		C507.528,189.028,507.297,187.049,507.177,184.934z"/>
	<path d="M558.051,368.204c-0.16-7.245-3.964-12.507-8.181-17.514c-3.427-4.069-7.042-7.981-10.588-11.95
		c-2.073-2.32-4.187-4.603-6.253-6.929c-0.674-0.759-1.251-1.603-2.141-2.757c1.733,0.103,2.784,0.756,3.87,1.283
		c6.744,3.275,13.471,6.586,20.24,9.81c1.647,0.785,3.395,1.416,5.157,1.894c3.892,1.054,6.901-0.216,8.93-3.717
		c0.592-1.021,1.109-2.157,1.339-3.304c0.706-3.513,1.398-7.04,1.834-10.593c0.66-5.38,1.192-10.779,1.613-16.183
		c0.632-8.108,1.055-16.232,1.686-24.34c0.849-10.909,1.19-21.832,1.242-32.769c0.005-1.028,0.129-2.056,0.214-3.311
		c9.802-0.56,19.485-1.09,29.426-1.462c-0.407,2.717-0.842,5.061-1.096,7.425c-0.493,4.595-1.076,9.192-1.281,13.803
		c-0.497,11.163-0.761,22.337-1.202,33.503c-0.141,3.579-0.48,7.156-0.87,10.718c-0.106,0.971-0.534,2.038-1.139,2.805
		c-7.912,10.028-15.871,20.019-23.842,30.001c-5.978,7.486-11.989,14.946-17.986,22.416
		C558.744,367.38,558.454,367.718,558.051,368.204z"/>
	<path d="M672.897,210.233c2.651,1.426,5.366,2.745,7.938,4.3c4.639,2.805,9.385,5.441,13.594,8.923
		c6.219,5.146,11.84,10.747,14.377,18.672c2.327,7.268,1.937,14.289-2.288,20.899c-2.423,3.791-6.157,5.212-10.289,5.748
		c-2.955,0.384-6.091-1.686-7.305-4.434c-0.514-1.164-0.939-2.375-1.302-3.595c-1.252-4.202-2.451-8.42-3.685-12.628
		c-3.006-10.245-5.997-20.494-9.051-30.724c-0.68-2.277-1.592-4.485-2.398-6.725C672.625,210.524,672.761,210.378,672.897,210.233z"
		/>
	<path d="M672.054,133.957c2.818,1.54,5.157,2.83,7.508,4.1c5.279,2.853,10.316,6.082,14.902,9.951
		c6.301,5.315,11.708,11.315,13.852,19.573c1.229,4.735,1.308,9.513-0.368,14.142c-1.984,5.479-6.071,8.677-11.747,9.758
		c-3.792,0.722-6.601-0.881-7.905-4.529c-0.962-2.691-1.622-5.49-2.431-8.237c-1.912-6.496-3.837-12.988-5.75-19.484
		c-2.34-7.951-4.519-15.954-7.622-23.66C672.36,135.236,672.301,134.872,672.054,133.957z"/>
	<path fill="#FFFFFF" d="M424.8,149.129c0,11.822,0.001,23.644-0.004,35.466c0,0.478-0.022,0.96-0.085,1.433
		c-0.288,2.177-1.366,2.83-3.514,2.151c-13.315-4.208-26.636-8.397-39.943-12.632c-6.921-2.203-13.831-4.442-20.712-6.764
		c-1.715-0.579-3.316-1.512-4.941-2.336c-1.987-1.007-2.769-2.83-2.976-4.892c-0.247-2.458-0.47-4.933-0.465-7.401
		c0.041-19.73,0.134-39.459,0.229-59.189c0.008-1.595,0.075-3.197,0.245-4.782c0.292-2.726,1.725-4.054,4.431-3.948
		c1.497,0.059,3.035,0.31,4.459,0.769c19.14,6.174,38.266,12.391,57.388,18.621c4.737,1.543,5.575,2.547,5.728,7.557
		c0.156,5.108,0.069,10.224,0.074,15.336c0.007,6.87,0.002,13.74,0.002,20.61C424.745,149.129,424.773,149.129,424.8,149.129z"/>
	<path fill="#FFFFFF" d="M272.949,214.402c0,7.028,0.001,14.055-0.001,21.083c0,0.639,0.035,1.283-0.037,1.915
		c-0.286,2.519-1.499,3.342-3.93,2.526c-7.26-2.437-14.503-4.927-21.748-7.409c-0.525-0.18-1.017-0.458-1.522-0.694
		c-3.109-1.448-4.526-3.882-4.307-7.301c0.193-3.027,0.356-6.057,0.516-9.086c0.288-5.421,0.569-10.841,0.843-16.263
		c0.246-4.864,0.448-9.73,0.74-14.591c0.061-1.011,0.302-2.058,0.688-2.994c0.632-1.532,1.844-2.442,3.572-2.267
		c1.81,0.184,3.666,0.31,5.397,0.818c4.972,1.459,9.886,3.117,14.834,4.66c3.168,0.988,4.832,3.253,4.936,7.083
		c0.08,2.953,0.019,5.909,0.019,8.864C272.949,205.298,272.949,209.85,272.949,214.402z"/>
	<path fill="#FFFFFF" d="M272.949,155.832c0,7.028,0,14.057,0,21.085c0,0.559,0.014,1.119-0.005,1.677
		c-0.097,2.808-1.169,3.618-3.807,2.763c-4.706-1.525-9.415-3.048-14.08-4.693c-2.467-0.87-4.893-1.896-7.246-3.039
		c-2.18-1.06-3.677-2.824-4.062-5.303c-0.257-1.65-0.508-3.322-0.52-4.986c-0.064-8.625-0.111-17.252-0.037-25.877
		c0.033-3.822,0.303-7.647,0.581-11.461c0.22-3.005,2.013-4.701,5.017-4.652c1.734,0.029,3.518,0.277,5.181,0.761
		c4.288,1.249,8.55,2.606,12.764,4.087c1.559,0.548,3.056,1.423,4.396,2.402c1.439,1.051,1.823,2.725,1.818,4.474
		c-0.009,3.754-0.002,7.508-0.002,11.262C272.949,148.165,272.949,151.998,272.949,155.832z"/>
	<path fill="#FFFFFF" d="M490.931,397.825c3.166,0,6.172,0,9.345,0c0-2.011,0-3.954,0-5.906c-0.716-0.27-1.287-0.485-1.858-0.699
		c2.122-0.557,4.229-0.465,6.431-0.06c-0.615,0.233-1.231,0.466-2.097,0.794c0,2.625,0,5.326,0,8.027
		c0,1.277-0.01,2.554,0.006,3.831c0.031,2.373,0.038,2.373,2.449,3.199c-2.478,0.501-4.637,0.285-6.883-0.133
		c0.613-0.306,1.449-0.464,1.777-0.959c0.35-0.528,0.271-1.372,0.287-2.08c0.034-1.572,0.011-3.146,0.011-4.833
		c-3.216,0-6.222,0-9.537,0c0,2.113-0.122,4.241,0.078,6.339c0.056,0.593,1.051,1.097,1.764,1.786
		c-2.021,0.369-4.133,0.14-6.335-0.254c0.615-0.297,1.497-0.441,1.777-0.929c0.361-0.629,0.308-1.534,0.314-2.321
		c0.026-3.901,0.012-7.803,0.012-11.678c-0.836-0.293-1.42-0.497-2.168-0.759c0.268-0.204,0.418-0.418,0.57-0.42
		c1.911-0.023,3.823-0.015,5.856,0.288c-0.549,0.281-1.098,0.561-1.798,0.919C490.931,393.784,490.931,395.67,490.931,397.825z"/>
	<path fill="#FFFFFF" d="M445.166,407.117c-1.666,0-3.332,0-5.504,0c0.986-0.516,1.721-0.675,2.031-1.126
		c0.322-0.468,0.307-1.218,0.313-1.845c0.035-3.27,0.053-6.54,0.03-9.809c-0.015-2.234-0.049-2.234-2.426-3.594
		c1.584,0,2.673-0.167,3.674,0.058c0.674,0.152,1.339,0.761,1.809,1.33c2.74,3.323,5.415,6.699,8.127,10.045
		c0.528,0.651,1.126,1.246,1.995,2.199c0-4.408,0-8.336,0-12.328c-0.717-0.287-1.333-0.534-1.95-0.782
		c0.018-0.113,0.035-0.227,0.053-0.34c1.674,0,3.348,0,5.356,0c-0.741,0.406-1.278,0.701-1.964,1.078c0,5.002,0,10.088,0,15.212
		c-1.616,0.573-2.503-0.312-3.32-1.306c-2.633-3.205-5.25-6.423-7.879-9.631c-0.582-0.71-1.185-1.402-1.778-2.102
		c-0.162,0.055-0.324,0.11-0.485,0.165c0,2.353-0.002,4.706,0.001,7.059c0.001,0.798,0.048,1.597,0.011,2.392
		C443.187,405.281,443.321,406.615,445.166,407.117z"/>
	<path fill="#FFFFFF" d="M415.129,399.159c2.065,2.659,4.06,5.228,6.018,7.749c-1.736,0.759-2.458,0.656-3.57-0.791
		c-1.841-2.396-3.642-4.822-5.636-7.469c0.755-0.114,1.364-0.102,1.886-0.31c0.868-0.345,1.873-0.649,2.477-1.293
		c1.688-1.8,0.712-4.755-1.704-5.196c-1.044-0.191-2.168,0.058-3.447,0.116c0,4.858,0,9.451,0,14.179
		c0.657,0.224,1.286,0.438,1.914,0.651c-2.129,0.6-4.254,0.614-6.514,0.131c1.643-0.282,2.199-1.166,2.156-2.73
		c-0.096-3.43-0.071-6.866-0.007-10.297c0.027-1.466-0.361-2.484-1.981-2.97c0.4-0.065,0.8-0.183,1.2-0.187
		c2.237-0.018,4.474-0.012,6.711-0.006c0.479,0.001,0.962,0.003,1.435,0.069c1.985,0.276,3.143,1.206,3.499,2.774
		c0.354,1.557-0.408,3.312-1.958,4.306C416.885,398.349,416.076,398.679,415.129,399.159z"/>
	<path fill="#FFFFFF" d="M438.482,391.084c-2.771,0.974-5.803,3.394-9.123,7.17c3.141,2.898,6.287,5.799,9.515,8.778
		c-1.632,0.484-3.063,0.478-4.441-0.92c-2.228-2.26-4.61-4.369-7.162-6.763c-0.515,2.322-0.361,4.359-0.137,6.349
		c0.053,0.469,1.133,0.823,1.649,1.168c-1.157,0.559-3.156,0.652-6.388,0.103c0.874-0.31,1.371-0.486,2.087-0.74
		c0.397-4.661,0.117-9.413,0.152-14.264c-0.68-0.304-1.257-0.561-1.833-0.818c0.034-0.091,0.068-0.182,0.102-0.274
		c1.986,0,3.973,0,5.959,0c0.028,0.104,0.056,0.209,0.084,0.314c-0.603,0.257-1.207,0.513-1.869,0.795c0,2.053,0,4.034,0,6.016
		c1.602-0.487,5.508-4.223,7.418-7.132C435.689,390.743,436.943,390.508,438.482,391.084z"/>
	<path fill="#FFFFFF" d="M483.795,391.714c-0.137,1.165-0.255,2.161-0.374,3.168c-0.331-0.065-0.591-0.09-0.592-0.119
		c-0.035-1.876-1.277-2.707-2.86-2.899c-1.721-0.209-3.505-0.273-5.22-0.061c-1.738,0.215-3.115,1.344-3.887,2.918
		c-1.401,2.854-1.331,5.768,0.428,8.437c1.703,2.585,4.273,3.477,7.3,3.025c0.936-0.14,1.851-0.414,2.886-0.652
		c0-1.37,0-2.617,0-4.027c-0.794-0.189-1.6-0.38-2.405-0.571c1.693-0.896,3.447-0.488,5.125-0.589
		c-0.188,1.888-0.37,3.71-0.586,5.876c-3.612,1.258-7.434,2.092-11.373,0.419c-3.32-1.411-5.172-4.72-4.801-8.321
		c0.4-3.884,3.074-6.859,6.941-7.53C477.491,390.246,480.575,390.442,483.795,391.714z"/>
	<path fill="#FFFFFF" d="M396.798,390.544c0.337,0.684,0.702,1.355,1.005,2.053c1.712,3.943,3.37,7.911,5.138,11.828
		c0.425,0.943,1.199,1.728,1.942,2.767c-1.843,0.158-3.795,0.266-5.803-0.415c0.555-0.192,1.109-0.383,1.91-0.66
		c-0.59-1.537-1.145-2.979-1.709-4.448c-2.306,0-4.432,0-6.699,0c-0.564,1.426-1.107,2.798-1.695,4.284
		c0.76,0.33,1.314,0.57,2.148,0.931c-1.912,0.684-3.556,0.388-5.177,0.316c0.76-0.984,1.615-1.763,2.067-2.731
		c1.852-3.967,3.577-7.992,5.357-11.992c0.281-0.631,0.604-1.243,0.908-1.863C396.393,390.592,396.596,390.568,396.798,390.544z
		 M398.75,400.454c-0.978-2.302-1.8-4.239-2.828-6.66c-1.017,2.43-1.847,4.414-2.787,6.66
		C395.157,400.454,396.766,400.454,398.75,400.454z"/>
	<path fill="#FFFFFF" d="M531.347,391.257c-0.168,1.392-0.281,2.326-0.41,3.401c-0.309-0.212-0.632-0.328-0.633-0.45
		c-0.027-1.858-1.23-2.414-2.798-2.612c-1.752-0.221-3.394-0.075-4.468,1.556c-1.145,1.739-0.414,3.813,1.612,4.346
		c1.456,0.384,2.995,0.44,4.478,0.737c2.955,0.591,4.141,3.028,2.797,5.739c-1.05,2.119-2.92,3.145-5.161,3.449
		c-1.987,0.269-3.974,0.142-6.076-0.845c0.067-1.086,0.137-2.212,0.207-3.338c0.878,1.152,0.976,2.572,2.639,2.969
		c1.613,0.385,3.152,0.529,4.681-0.15c1.469-0.651,2.202-1.926,2.068-3.444c-0.129-1.463-0.851-2.194-2.698-2.536
		c-1.096-0.203-2.224-0.221-3.33-0.379c-1.769-0.252-3.237-0.926-3.687-2.881c-0.47-2.042,0.334-4.066,2.05-5.246
		c1.398-0.961,2.987-1.135,4.591-1.01C528.53,390.666,529.835,390.994,531.347,391.257z"/>
	<path fill="#FFFFFF" d="M511.761,391.858c-1.761,0-3.092,0-4.455,0c-0.228,0.816-0.416,1.49-0.719,2.576
		c-0.771-1.32-0.418-2.386-0.554-3.545c4.598,0,9.1,0,13.752,0c-0.088,1.097-0.17,2.107-0.251,3.117
		c-0.122,0.038-0.245,0.076-0.367,0.113c-0.28-0.708-0.56-1.416-0.898-2.271c-1.222,0-2.477,0-4.077,0
		c-0.331,4.697-0.236,9.431-0.032,14.258c0.698,0.261,1.302,0.487,2.363,0.884c-2.599,0.466-4.718,0.409-6.955-0.077
		c1.774-0.189,2.214-1.257,2.204-2.749C511.742,400.109,511.761,396.052,511.761,391.858z"/>
	<path fill="#FFFFFF" d="M460.216,406.949c1.009-0.398,1.887-0.718,1.873-2.074c-0.047-4.288-0.017-8.578-0.017-12.923
		c-0.692-0.283-1.24-0.508-1.787-0.732c2.021-0.618,4.017-0.53,6.086-0.027c-0.545,0.211-1.089,0.422-1.592,0.617
		c-0.103,0.193-0.24,0.33-0.241,0.468c-0.037,4.137-0.024,8.275-0.107,12.411c-0.03,1.478,0.782,1.94,2.086,2.216
		C464.428,407.436,462.381,407.332,460.216,406.949z"/>
	<path fill="#FFFFFF" d="M569.801,402.622c-2.201,0-4.179,0-6.296,0c0.16-0.634,0.288-1.144,0.435-1.725c2.058,0,4.036,0,6.211,0
		C570.035,401.469,569.934,401.966,569.801,402.622z"/>
	<path fill="#FFFFFF" d="M356.552,400.806c-0.247,0.778-0.408,1.285-0.581,1.829c-2.056,0-4.028,0-6.095,0
		c-0.021-1.027,0.089-1.821,1.308-1.827C352.911,400.8,354.639,400.806,356.552,400.806z"/>
	<path fill="#FFFFFF" d="M178.629,204.247c0.001,8.469,0.019,16.937-0.02,25.406c-0.005,1.178-0.199,2.376-0.467,3.528
		c-0.298,1.277-1.254,1.774-2.541,1.653c-0.159-0.015-0.332,0.012-0.476-0.041c-3.665-1.323-7.357-2.577-10.977-4.014
		c-1.927-0.765-2.524-2.435-2.515-4.483c0.03-6.71-0.039-13.42-0.079-20.13c-0.06-10.145-0.137-20.289-0.181-30.434
		c-0.005-1.193,0.065-2.4,0.252-3.576c0.476-2.985,2.511-4.411,5.464-3.733c1.783,0.409,3.505,1.086,5.253,1.644
		c0.076,0.024,0.147,0.062,0.223,0.088c4.5,1.527,5.86,2.13,6.015,8.687C178.779,187.306,178.628,195.778,178.629,204.247z"/>
	<path d="M398.75,400.454c-1.985,0-3.594,0-5.616,0c0.94-2.247,1.77-4.23,2.787-6.66C396.95,396.215,397.773,398.152,398.75,400.454
		z"/>
</g>
</svg>
